<svg xmlns="http://www.w3.org/2000/svg" width="2048" height="2048"><path fill="#1a1711" d="M1360.945 569.594c3.458 2.366 5.547 5.525 7.055 9.406v4l3.383.297c12.696 1.184 25.115 3.219 37.617 5.703l2.797.542c14.87 2.91 29.208 7.005 43.614 11.69 2.516.746 5.008 1.296 7.589 1.768v-2h2l.625-1.812c2.013-3.204 3.813-3.916 7.375-5.188 6.552-1.023 11.468 0 17.086 3.504 3.92 3.065 5.993 6.682 6.914 11.496q.098 2.624.063 5.25l-.028 2.703L1497 619l1.95 1.031c7.534 4.042 14.811 8.42 22.05 12.969l3.27 2.02c9.551 5.993 18.561 12.647 27.592 19.394 2.812 2.086 5.661 4.117 8.513 6.149 3.57 2.582 6.608 5.237 9.625 8.437 1.768 1.952 1.768 1.952 4 3 1.611-.168 3.224-.354 4.816-.652 6.49-1.034 12.957-1.58 18.746 1.902 4.011 2.948 6.46 6.199 8.438 10.75.744 5.855.55 11.119-3 16-4.991 4.338-8.672 7.143-15.375 7.125l-2.898.008c-2.408-.117-4.427-.446-6.727-1.133q-1.659 1.873-3.312 3.75l-1.864 2.11c-1.853 2.11-1.853 2.11-3.43 4.406L1568 718h-2l-.781 1.734c-1.333 2.477-2.87 4.4-4.719 6.516l-1.844 2.14C1557 730 1557 730 1555 730l-.75 1.688c-1.48 2.736-3.185 4.989-5.25 7.312h-2l-.125 1.688c-1.083 2.863-2.805 3.98-5.184 5.808-2.593 2.306-4.436 5.082-6.394 7.93L1534 756h-2l-2 4h-2l-2 5h-2l-2 4h-2l-.812 1.75c-1.217 2.306-2.491 4.27-4.188 6.25h-2l-2 5h-2v9h2c.597 6.474.264 10.937-3.566 16.309-2.792 3.293-5.344 5.328-9.434 6.691-6.649.499-12.335.777-18-3v-2l-3-1c-2.972-4.567-3.155-7.608-2.625-12.937.192-5.074.192-5.074-2.121-9.387-2.333-1.813-4.654-3.277-7.254-4.676l-3.25-1.937-1.684-.91c-2.848-1.589-5.605-3.312-8.379-5.028-5.991-3.7-5.991-3.7-12-7.375l-2.175-1.328c-6.024-3.41-12.081-6.145-18.637-8.36-8.328-2.838-8.328-2.838-12.105-4.382-8.25-3.325-16.676-5.07-25.395-6.742l-3.779-.766-3.573-.645-3.22-.601c-2.917-.207-2.917-.207-5.031 1.877L1364 747c-4.476 4.947-7.759 6.64-14.375 7.375-6.999-.724-12.09-4.016-16.625-9.375l-1-3c-27.944 2.092-54.168 8.287-79.75 19.957l-2.973 1.347c-2.538 1.547-2.538 1.547-3.204 4.582-.25 2.75-.195 5.36-.073 8.114l-1 2h-2c-.095.605-.19 1.21-.29 1.832-.868 2.65-1.794 3.323-4.085 4.856l-1.836 1.261c-4.056 2.382-8.214 2.656-12.789 2.051-3.124-1.107-6.06-2.475-9-4l-1.61 1.426-2.14 1.886-2.11 1.864C1203.48 794 1203.48 794 1201 794l-2 4h-2l-1 3c-1.453 1.395-1.453 1.395-3.25 2.813-3.4 2.801-5.992 5.758-8.75 9.187-2.187 2.375-2.187 2.375-4 4h-2l-2 5h-2c-.934 4.531-.934 4.531 0 9 1.178 14.333 1.178 14.333-2.062 19.188-5.539 6-10.876 7.266-18.778 7.734L1151 858l-1 3h-2l-.437 2.875C1147 867 1147 867 1146 869h-2l-.332 1.688c-1.11 5.338-2.635 10.26-4.668 15.312-2.438 6.148-4.284 12.351-6.035 18.73-.965 3.27-.965 3.27-1.974 5.645-1.014 2.687-1.46 5.046-1.807 7.89l-.377 2.946-.37 3.039q-.37 3.008-.753 6.016l-.327 2.68C1127 935 1127 935 1126 936c-.584 2.872-.584 2.872 0 6 2.782 2.077 2.782 2.077 6 4 4.553 5.291 5.32 10.379 4.852 17.145-.882 5.121-3.151 7.581-7.196 10.726C1128 975 1128 975 1126 976c-.043 2-.04 4 0 6l1 1c.273 1.57.49 3.152.684 4.734l.373 2.93q.378 3.062.75 6.125l.377 2.945.33 2.695c.515 2.724 1.4 5.026 2.486 7.571 1.002 3.275 1.89 6.54 2.688 9.871 1.356 5.658 2.859 10.83 5.312 16.129q1.111 2.617 2.188 5.25l1.042 2.516c.77 2.234.77 2.234.77 5.234h2c1.257 2.906 2 4.796 2 8h2l1 3 2.195.113c7.588.516 12.859 1.422 18.18 7.2 3.976 5.6 3.442 12.113 2.625 18.687-1.031 2.926-1.031 2.926-2 5l1.313 1.46c.556.633 1.113 1.264 1.687 1.915l1.688 1.898C1178 1098 1178 1098 1178 1100h2l.75 2.375c1.404 2.948 2.257 3.527 5.25 4.625v2l3 1c1.535 1.594 1.535 1.594 3.063 3.5 2.114 2.681 2.114 2.681 4.937 4.5v2l4 2v2l1.695.766c2.637 1.412 4.821 3.147 7.18 4.984 3.884 2.93 3.884 2.93 8.625 2.75l2.5-1.5c4.295-2.148 9.866-1.648 14.367-.281 3.51 1.594 5.255 2.588 7.133 6.031l.5 2.25h2c1.05 3.15 1.101 5.388 1.063 8.688l-.028 3.011L1246 1153l2.672.836c3.041 1.064 5.715 2.325 8.578 3.789 10.76 5.057 22.355 8.082 33.75 11.375l2.88.845c6.207 1.77 12.351 2.975 18.745 3.842l2.656.393c8.342 1.267 8.342 1.267 16.719.92 1.857-1.51 1.857-1.51 2.625-3.75 1.94-3.698 3.509-5.77 7.285-7.629 5.475-1.627 10.99-1.255 16.402.379 2.578 1.918 3.981 3.56 5.856 6.125l1.614 2.195L1367 1174c30.407-2.387 62.198-14.384 87-32a633 633 0 0 1 5.688-3.562c4.422-2.782 8.502-5.835 12.535-9.153C1474 1128 1474 1128 1476 1128l-1-2c-1.82-5.458-1.725-9.999.625-15.187 2.73-4.893 6.085-7.668 11.125-10.188 5.714-1.099 11.08-.624 16.375 1.813L1505 1104v2l3 1c3.65 4.352 4.17 9.488 4 15-.725 3.132-1.737 6.046-3 9l2 1.875c2 2.125 2 2.125 2 4.125h2c1.508 1.46 1.508 1.46 3.125 3.375l1.633 1.898C1521 1144 1521 1144 1521 1146l3 1c1.79 1.742 1.79 1.742 3.625 3.875l1.852 2.117C1531 1155 1531 1155 1532 1158h2c1.508 1.46 1.508 1.46 3.125 3.375l1.633 1.898C1540 1165 1540 1165 1540 1167l3 1v2h2c1.508 1.46 1.508 1.46 3.125 3.375l1.633 1.898C1551 1177 1551 1177 1551 1179l3 1 .438 1.938c.363 2.265.363 2.265 2.624 3.312l1.938.75v2l3 1c4 4.457 4 4.457 4 7l4 2v2h2l.813 2.438L1574 1205l3 1v2l1.602-.484c6.167-1.326 12.987-1.32 18.96.671 2.727 2.028 4.586 3.963 6.438 6.813v3h2c1.616 5.049 1.438 9.588-.125 14.625-2.605 4.689-5.492 7.022-10.187 9.688-6.917 1.769-12.402.897-18.688-2.313l-1.898 1.75-2.477 2.25-2.46 2.25C1568 1248 1568 1248 1566 1248v2l-1.937.313-2.063.687-1 3a187 187 0 0 1-6 4 326 326 0 0 0-3 3c-9.348 7.513-19.48 14.07-29.625 20.438l-3.156 2.007c-5.396 3.38-10.677 6.317-16.56 8.745-3.278 1.364-5.833 2.606-8.659 4.81-1.144 3.767-1.199 6.793-1.035 10.715.043 4.078-.8 5.966-3.469 8.953-5.65 5.031-10.048 6.032-17.555 5.797-5.13-.81-8.502-3.597-12.524-6.677-3.82-1.245-7.105.178-10.812 1.317l-2.498.727a1006 1006 0 0 0-7.92 2.355c-16.498 4.904-32.67 8.609-49.75 11l-3.689.538-3.564.505-3.17.45c-3.03.322-5.97.376-9.014.32l-.156 1.941c-.864 6.586-2.682 9.66-7.871 13.782-4.89 3.166-10.364 2.696-15.973 2.277-5.762-1.74-9.113-5.865-12-11-.363-1.66-.7-3.327-1-5l-1.66-.194c-52.053-6.104-52.053-6.104-70.34-10.806l-3.757-.963c-11.12-2.87-22.213-5.841-33.243-9.037l-1 3c-4.148 4.136-8.686 5.418-14.437 5.688-6.555-.267-10.866-2.128-15.563-6.688-2.21-2.97-3.081-4.826-2.824-8.543.159-3.29.082-5.39-1.176-8.457-4.31-3.03-8.934-4.933-13.766-6.983-3.604-1.64-6.935-3.683-10.296-5.767-3.548-2.18-7.093-4.352-10.723-6.395-3.215-1.855-3.215-1.855-5.59-3.793-2.241-1.76-4.252-2.988-6.75-4.312-5.672-3.067-10.73-6.88-15.875-10.75l-2.336-1.742c-2.611-1.951-5.217-3.9-7.762-5.938-1.793-1.547-1.793-1.547-3.902-1.132-2.004.758-2.004.758-3.758 1.84-4.48 1.943-9.468 1.502-14.242.972-3.562-1.812-3.562-1.812-6-4l-1.875-1.625C1084 1248 1084 1248 1084 1246h-2c-1.935-5.805-1.953-12.53.5-18.187l1.5-2.813h-2c-1.19-1.64-2.377-3.286-3.488-4.98-1.944-2.597-4.196-4.752-6.512-7.02-5.995-6.202-11.434-12.682-16.625-19.562l-1.615-2.13-1.487-2-1.33-1.787C1050 1186 1050 1186 1050 1184l-3-1c-.687-2.062-.687-2.062-1-4h-2c-1.29-1.68-1.29-1.68-2.625-3.875l-1.352-2.18C1039 1171 1039 1171 1039 1169h-2l-.812-2.937L1035 1163c-3.27-1.09-5.631-1.067-9.062-1-5.716.11-5.716.11-7.938-1l-2 6h-2l-.25 1.625c-1.026 3.248-2.716 5.663-4.75 8.375h-2l-.719 2.117c-1.519 3.418-3.497 6.05-5.781 9.008-2.247 2.925-4.454 5.806-6.5 8.875h-2l-2 5h-2c-.26.567-.52 1.134-.79 1.719-1.319 2.486-2.849 4.567-4.585 6.781l-1.773 2.281c-1.842 2.207-3.79 4.22-5.852 6.219l1.5 2.875c1.97 4.688 2.34 9.114 1.5 14.125-2.141 5.137-5.337 8.932-10 12-5.736 1.912-11.967 1.96-17.437-.625L948 1246c-2.552.75-4.015 2.012-6.125 3.625C940 1251 940 1251 938 1251l-1 3c-1.623 1.439-1.623 1.439-3.719 2.926l-2.328 1.666-2.453 1.72-2.36 1.686a417 417 0 0 1-25.265 16.627l-2.3 1.406c-3.396 2.069-6.799 4.113-10.255 6.078a283 283 0 0 0-6.383 3.743c-5.236 3.16-9.918 5.917-15.937 7.148l.105 2.887.082 3.8.106 3.762c-.37 4.475-1.7 6.909-4.793 10.098-6.209 4.98-11.734 5.213-19.5 4.453-3.562-1.812-3.562-1.812-6-4l-1.875-1.625C833 1315 833 1315 833 1313l-3.108.933c-10.37 3.095-20.774 5.985-31.267 8.63l-2.328.588c-33.757 8.463-33.757 8.463-49.297 7.849l-1 6h-2l-.437 1.875C743 1341 743 1341 742 1343h-2v2c-3.925 3.066-8.074 4.15-13 4-5.442-1.1-10.083-2.971-14-7l-1.142-3.584c-.986-1.985-.986-1.985-2.858-3.416-5.272-1.113-10.56-.955-15.922-.902q-2.379-.014-4.758-.038c-4.17-.032-8.338-.022-12.508-.004-4.256.01-8.513-.017-12.769-.042-8.348-.043-16.695-.043-25.043-.014l-.437 2.375C637 1339 637 1339 636 1341h-2l-.687 1.813c-1.708 2.845-3.359 3.7-6.313 5.187-6.154 1.109-11.628.764-17-2.562-3.107-2.172-3.982-3.393-5.421-7.007-1.398-2.46-2.062-3.28-4.81-4.085-3.006-.252-5.946-.277-8.963-.232l-3.46-.033a861 861 0 0 0-11.33.017q-3.927-.014-7.853-.038c-6.187-.03-12.374-.027-18.56-.01-7.046.018-14.09-.004-21.135-.029-14.49-.051-28.979-.052-43.468-.021l-1 5h-2l-.562 2.25c-2.008 3.84-4.407 5.476-8.438 6.75-6.141.834-12.029 1.252-17.312-2.375L453 1343v-2h-2c-2.147-3.498-2.298-6.374-2.312-10.437l-.051-3.372c.67-5.883 4.083-9.328 8.363-13.191l4-2 1-143-5-2c-2.312-1.5-2.312-1.5-4-3v-2h-2c-3.341-5.408-2.668-11.896-2-18 1.136-3.027 2.487-4.979 5-7l3.556-1.166c1.985-1.013 1.985-1.013 3.444-2.834 1.119-4.88.943-9.795.886-14.774q.013-2.306.033-4.613c.029-4.174.015-8.346-.007-12.52-.016-4.361.008-8.723.028-13.084.03-8.26.027-16.518.01-24.777-.018-9.402.004-18.805.029-28.207.051-19.342.052-38.683.021-58.025l-2.828-.852c-4.304-1.558-6.859-4.056-9.285-7.921-2.146-5.388-1.93-12.337.023-17.75 2.542-4.397 5.208-6.741 10.09-8.477h2c.056-18.298.067-36.595.023-54.893-.019-8.496-.023-16.992.008-25.488q.041-11.107-.01-22.215c-.017-3.921-.02-7.841.01-11.763.028-3.691.018-7.381-.02-11.073-.01-2 .018-3.999.048-5.998.127-6.244.127-6.244-2.819-11.405-2.092-1.357-2.092-1.357-4.281-2.253-2.67-1.243-4.042-3.07-5.338-5.685-1.596-5.721-1.91-12.501.652-17.918 1.758-2.351 3.418-3.906 5.79-5.621l2.097-1.551C460 765 460 765 462 765c.056-20.497.067-40.994.023-61.491-.019-9.517-.023-19.034.008-28.551q.041-12.443-.01-24.886c-.017-4.393-.02-8.784.01-13.177.028-4.135.018-8.27-.02-12.405q-.01-2.274.02-4.55c.371-8.04.371-8.04-2.773-15.1-2.02-1.517-4.035-2.654-6.258-3.84-3.075-2.635-3.883-4.782-4.273-8.855-.193-6.33-.25-11.366 3.668-16.555 4.24-4.2 8.686-5.799 14.605-6.09 5.343.27 8.58 1.429 13 4.5l5 9h191l3-7h2l1-3c5.49-3.154 10.722-3.953 17-3 2.648 1.089 4.63 2.35 7 4v2h2c1.765 3.088 2 4.233 2 8l3.468.272c34.125 2.716 67.602 6.307 100.49 16.18 2.012.634 2.012.634 4.042.548l.793-1.828c2.128-3.83 5.176-5.61 9.207-7.172 5.941-.847 11.094-.903 16.563 1.688 3.562 3.379 6.55 6.743 8.437 11.312a115 115 0 0 1-.312 4.25c.095 2.456.095 2.456 1.312 4.75 4.042 2.931 8.39 4.954 12.917 7.03 3.174 1.478 6.25 3.123 9.333 4.783l1.83.974C890.076 633.212 902.105 639.81 913 648l1.984 1.477q1.956 1.462 3.903 2.937c3.355 2.518 6.76 4.967 10.172 7.41 2.09 1.546 4.1 3.107 6.101 4.758l1.595 1.284c1.485 1.2 2.953 2.42 4.42 3.642 2.757 1.858 2.757 1.858 5.774.754L950 669c6.836-.639 13.193-.982 19 3v2l3 1c3.212 5.59 3.64 10.627 3 17-1 3.5-1 3.5-2 6v2h2c5 5.476 5 5.476 5 8h2l2 5h2a139 139 0 0 1 5.25 6.5l1.491 1.935q1.469 1.907 2.927 3.82a548 548 0 0 0 3.39 4.386C1003 734.745 1003 734.745 1003 737h2l2 6h2c1.415 1.97 2.708 3.95 4 6q1.62 2.44 3.25 4.875L1019 758c8.223.552 8.223.552 15.246-3.012 1.782-2.59 3.296-5.203 4.754-7.988q1.385-2.325 2.813-4.625l1.144-1.977L1044 739h2l2-5h2l2-6h2l2-5h2l.781-1.703c1.36-2.564 2.947-4.75 4.719-7.047l1.844-2.422L1067 710h2l2-5h2l-.656-1.652c-2.355-6.378-3.904-12.209-1.43-18.774 2.84-5.597 6.042-9.008 12.024-11.324 6.13-.743 9.59.014 15.062 2.75 3.426-.245 6.015-1.341 9-3v-2l1.688-.687c2.44-1.24 2.44-1.24 4.394-3.473 3.602-3.67 7.767-6.577 11.918-9.59l2.578-1.88q3.706-2.692 7.422-5.37l1.832-1.331c6.668-4.833 13.563-9.22 20.605-13.481l2.525-1.536a179 179 0 0 1 14.179-7.664l3.057-1.518q2.926-1.44 5.907-2.758c2.75-1.368 4.774-2.484 6.895-4.712.826-3.174.992-5.92.93-9.195.072-2.887.581-4.373 2.07-6.805h2l.625-1.812c2.05-3.263 3.71-3.924 7.375-5.188 5.701-.648 10.387-.82 15.563 1.813L1221 598l1.875 1.625C1224 601 1224 601 1224 603c5.402-1.23 10.756-2.55 16.008-4.324 14.4-4.86 29.073-7.852 43.992-10.676l2.734-.52c8.55-1.598 17.115-2.766 25.766-3.668l2.428-.254c5.702-.547 11.346-.646 17.072-.558l.25-3.187c.847-4.307 1.548-5.85 4.75-8.813 8.168-4.92 15.33-5.58 23.945-1.406m-48.882 22.593-3.11.397c-11.378 1.514-22.64 3.603-33.9 5.82a695 695 0 0 1-8.104 1.526c-9.328 1.762-18.423 4.208-27.512 6.945l-3.34.956c-5.976 1.712-5.976 1.712-9.937 6.177-.178 3.332-.218 4.396 1.84 6.992a96 96 0 0 0 6.375 4.75l1.902 1.328c4.825 3.353 9.718 6.602 14.625 9.832 4.228 2.852 8.357 5.836 12.467 8.854 2.54 1.844 4.63 3.236 7.631 4.236l2.242-.98c3.565-1.318 6.124-.76 9.883-.332 5.072.165 5.072.165 9.579-1.875 3.173-3.058 5.721-6.554 8.187-10.194 2.373-3.465 5.109-6.64 7.859-9.807 2.458-2.472 2.458-2.472 2.25-4.812h2l.313-1.937L1314 618l3-1c1.337-1.53 1.337-1.53 2.5-3.375 1.657-2.496 3.348-4.543 5.5-6.625 5.715-5.765 5.715-5.765 9-13l-1-3c-7.08-.164-13.918.278-20.937 1.188m54.123.804L1365 595a43.3 43.3 0 0 0 7 11h2l2 5h2l2 5h2l2 5h2l.82 1.754c1.185 2.255 2.51 4.162 4.055 6.183l1.598 2.098a372 372 0 0 0 3.84 4.84C1398 638 1398 638 1399 640h2l.813 2.313c1.194 2.702 1.856 3.934 4.187 5.687 2.702.327 2.702.327 5.688.125 3.69-.144 6.514-.077 10.14.777 3.782.513 5.573-.455 8.645-2.656a206 206 0 0 0 4.59-3.808l2.314-1.885a326 326 0 0 0 8.549-7.243c4.116-3.608 8.337-6.354 13.133-9.013 3.096-3.663 2.3-7.692 1.941-12.297a3693 3693 0 0 0-18.433-6.146 540 540 0 0 1-5.977-2.034c-15.138-5.039-31.29-7.285-46.965-10.07l-2.75-.494A326 326 0 0 0 1379 592l-3.001-.47-2.976-.39-2.697-.373c-2.51-.01-2.51-.01-4.14 2.224M489 592c3.232 3.232 6.519 4.966 10.563 6.938l2.186 1.081c4.515 2.209 9.064 4.147 13.767 5.922 4.144 1.767 8.013 4.038 11.918 6.278 2.934 1.465 5.7 2.588 8.78 3.672 5.845 2.065 11.35 4.634 16.911 7.359l6.04 2.922 2.98 1.447c4.107 1.986 8.228 3.939 12.355 5.881l2.008.95c1.826.86 3.659 1.705 5.492 2.55l1.879.918c3.498 1.659 3.498 1.659 7.293 1.898 2.051-.916 4.07-1.87 6.078-2.879 4.386-1.963 7.982-2.813 12.75-1.937q2.162.987 4.313 2c2.252.942 2.252.942 4.687 1 4.157-2.057 7.473-5.019 11-8a417 417 0 0 1 5.625-4.062c4.205-3.053 8.31-6.212 12.395-9.422 2.574-1.97 5.283-3.718 7.98-5.516a510 510 0 0 0 6.684-5.191c2.859-2.233 5.767-4.394 8.687-6.547 1.759-1.308 1.759-1.308 3.629-3.262v-4zm223 1v2h-2l-.812 2.375C708 600 708 600 705 602l1 6h2l.32 2.105c.785 3.342 2.067 6.116 3.555 9.207 2.288 4.84 4.344 9.643 6.125 14.688h2l.25 2.5c1.275 6.273 1.275 6.273 4.75 11.5 2.737.664 5.142.753 7.953.672 3.21.346 4.104.971 6.703 2.691 2.78 1.473 3.838 1.778 6.91.925 3.002-1.472 5.83-3.107 8.684-4.85l3.192-1.842a673 673 0 0 0 6.468-3.779c4.416-2.597 8.905-5.052 13.403-7.505l2.431-1.342c6.552-3.615 13.164-7.108 19.816-10.535 3.697-1.92 7.344-3.906 10.924-6.037l1.976-1.174c1.849-1.24 1.849-1.24 2.54-4.224-3.766-3.766-9.652-4.39-14.687-5.75-.65-.175-1.298-.35-1.966-.532-11.728-3.129-23.538-5.285-35.534-7.093l-2.42-.367a660 660 0 0 0-26.557-3.414l-2.318-.256c-6.85-.711-13.631-.79-20.518-.588m628 8v2h-2l-.687 1.688c-1.683 2.964-3.874 4.929-6.313 7.312a212 212 0 0 0-3.312 3.688l-1.551 1.761c-1.334 1.5-1.334 1.5-1.137 3.551h-2c-3.242 3.592-6.056 7.398-8.79 11.387-1.28 1.707-2.699 3.106-4.21 4.613q-2.123 2.507-4.187 5.063c-1.074 1.316-1.074 1.316-2.168 2.66-1.84 2.08-1.84 2.08-1.645 4.277h-2l-1 4 1.72-.184c32.381-3.3 65-2.895 97.28 1.184-.685-3.883-1.483-6.06-4-9.125l-1.922-2.371L1390 640l-4.25-5.187-2.27-2.75a353 353 0 0 1-5.43-6.875l-1.504-1.949a571 571 0 0 1-2.916-3.82c-1.164-1.51-2.392-2.97-3.63-4.419h-2l-.812-2.312c-1.18-2.669-2.091-3.752-4.188-5.688l-1.437-2.687c-3.697-3.337-6.75-2.635-11.567-2.422-3.491.127-6.572-.268-9.996-.891m-853 1c3.382 4.882 6.803 8.9 11.418 12.64C500 616 500 616 501.938 618.439c1.896 2.356 3.77 4.108 6.062 6.062 3.078 2.626 5.47 5.339 8 8.5 1.109.998 2.236 1.974 3.375 2.938 6.017 5.133 11.488 10.842 17.042 16.465 1.423 1.436 2.86 2.86 4.298 4.28a104 104 0 0 1 5.66 6.255c2.782 3.223 5.72 5.93 9.004 8.628 2.505 2.216 4.49 4.865 6.621 7.434l3 2.5c2.306 1.922 3.92 3.514 5.75 5.813L573 690h2v2h3l2-7h2l2-6h2l1.313-2.687C589 673 589 673 590.75 670.438c1.61-3.141 1.314-4.095.25-7.438a367 367 0 0 0-2.184-6.523C588 654 588 654 587.326 650.557c-1.004-3.696-1.004-3.696-3.974-5.478l-3.372-1.474-1.837-.83c-1.976-.886-3.965-1.736-5.956-2.587q-2.055-.914-4.107-1.833-4.109-1.837-8.23-3.647c-5.192-2.29-10.304-4.74-15.413-7.208A1355 1355 0 0 0 522 617l-2.527-1.156q-2.583-1.178-5.168-2.348a3175 3175 0 0 1-8.297-3.773l-5.445-2.473-2.659-1.216-2.525-1.143-2.264-1.03c-2.025-.824-3.983-1.39-6.115-1.861m191.287.858c-.856.69-.856.69-1.728 1.396l-1.991 1.57-2.13 1.739q-2.278 1.8-4.56 3.597l-2.405 1.907c-4.135 3.232-8.365 6.331-12.598 9.433l-2.365 1.74A1889 1889 0 0 1 644 629l-1.981 1.445c-2.81 2.033-5.596 3.908-8.644 5.555-3.375 2-5.732 4.123-8.375 7l-1 1a100 100 0 0 0 0 5c5.939 2.386 12.076 2.928 18.379 3.691l3.647.455q3.819.475 7.638.94 5.79.71 11.58 1.435 3.723.462 7.447.92l3.452.43c10.017 1.216 20.068 2.303 30.17 2.192l3.3-.028L712 659l1-3h2c2.215-5.045 1.85-7.86 0-13h-2l-.25-2.437c-.952-4.522-2.766-8.41-4.75-12.563h-2l-.262-1.984c-.99-4.046-2.707-7.545-4.55-11.266l-1.042-2.219-1.04-2.11-.933-1.918c-1.545-1.98-2.742-2.102-5.173-2.503-2.27-.735-4.524-1.508-6.781-2.281L684 603l-1.924-.686c-2.079-.518-2.079-.518-3.79.544M481 610c.423 5.216 2.415 9.29 4.61 13.95 2.391 5.247 4.358 10.655 6.39 16.05q1.404 3.657 2.813 7.313L497 653h2l2 10h2l.188 2.313c.931 4.23 2.57 7.705 4.41 11.609 3.266 7.17 5.952 14.593 8.402 22.078h2l.188 2.813c.637 4.516 2.553 8.297 4.496 12.386 1.518 3.23 2.832 6.511 4.136 9.832 1.608 4.046 3.27 8.07 4.93 12.094l.964 2.338L535 744l10 1a805 805 0 0 0 2.5-4.375l1.406-2.46c1.244-2.058 1.244-2.058 1.094-4.165h2c1.848-3.613 3.55-7.209 5-11h2l2-7h2q1.507-2.684 3-5.375l1.688-3.023c1.462-2.414 1.462-2.414 1.312-4.602h2c.367-3.212.205-4.68-1.562-7.437-2.458-2.584-5.043-4.82-7.782-7.094-2.18-1.933-3.838-4.196-5.656-6.469a139 139 0 0 0-3.437-2.937c-3.284-2.726-5.829-5.782-8.563-9.063-1.759-1.567-3.565-3.064-5.379-4.566-2.169-1.918-3.815-4.176-5.621-6.434a139 139 0 0 0-3.437-2.937c-3.283-2.724-5.837-5.778-8.563-9.063l-3-2.5c-3-2.5-3-2.5-5.437-5.437-1.987-2.374-3.716-4.122-6.063-6.063-2.3-1.904-4.004-3.607-5.937-5.937-2.658-3.176-5.496-5.719-8.641-8.391-1.629-1.417-3.163-2.941-4.672-4.485-2.044-1.987-3.635-3.121-6.25-4.187m-9 4c-.843 26.084-1.286 52.165-1.558 78.26q-.084 7.943-.185 15.885-.074 6.249-.139 12.497-.03 2.928-.07 5.856c-.122 9.723-.127 19.433.26 29.15l.068 2.421c.182 4.215.182 4.215 2.03 7.91 1.838 1.178 3.451 1.652 5.594 2.021v2c1.48 1.864 1.48 1.864 4 3 7.795-.652 15.287-2.555 22.854-4.465q2.075-.518 4.16-1c3.816-.883 7.466-1.798 10.986-3.535 1.894-3.337 1.894-3.337 2-7 .987-2.828 1.626-4.626 3.75-6.75 1.86-3.35.747-5.838-.207-9.422L525 739h-2l-2-10h-2l-.297-1.652c-.996-5.024-2.462-9.404-4.633-14.035-1.485-3.209-2.768-6.486-4.066-9.774q-1.005-2.544-2.04-5.078A224 224 0 0 1 502 682h-2l-.687-3.812c-1.041-4.687-2.825-8.701-4.883-13.02-1.984-4.395-3.634-8.894-5.286-13.422-1.184-3.231-2.41-6.42-3.78-9.578-1.048-2.434-1.848-4.587-2.364-7.168h-2l-2-9h-2l-.312-2.625c-.722-3.542-1.96-6.218-3.688-9.375zm376 8c-2.222 2.077-2.222 2.077-4 5 .162 3.397.162 3.397 1.25 6.813.315 1.16.63 2.322.953 3.519L847 640h2l.438 3.688c.39 3.139.886 6.22 1.562 9.312h2l.438 3.688c.39 3.139.886 6.22 1.562 9.312h2l.113 1.688c.402 4.665 1.158 8.591 3.035 12.933.852 2.379.852 2.379 1.516 5.852.784 3.829 1.564 7.036 3.336 10.527 3.058 1.81 5.646 2.557 9.125 3.227 2.875.773 2.875.773 4.688 2.921 2.184 2.243 2.184 2.243 5.917 1.934 7.406-1.204 14.512-3.954 21.582-6.394q2.171-.739 4.342-1.475 4.212-1.43 8.419-2.876c4.513-1.546 9.051-3.014 13.596-4.467 2.549-.85 2.549-.85 5.331-2.87.79-1.954.79-1.954 1.188-4.125L940 679c-22.67-19.515-48.274-36.087-74.812-49.8a106 106 0 0 1-6.981-3.919c-2.201-1.278-4.045-1.923-6.52-2.468zm-36.812 3.188-2.087 1.082q-2.3 1.197-4.594 2.409c-2.65 1.396-5.31 2.77-7.972 4.141-11.912 6.15-23.7 12.504-35.422 19.01-4.358 2.413-8.736 4.79-13.113 7.17l1 5 3.62.703q6.702 1.301 13.403 2.605 2.89.563 5.781 1.123 4.175.81 8.348 1.624l2.577.499A559 559 0 0 1 799 674l.84-1.782 3.41-7.218 1.2-2.543 1.19-2.52 1.186-2.507c1.117-2.312 2.288-4.589 3.47-6.867 1.92-3.356 1.92-3.356 1.704-6.563h2l2-8h2c.676-1.412 1.34-2.83 2-4.25l1.125-2.39c1.107-2.566 1.107-2.566.875-6.36-4.176-1.855-7.113.203-10.812 2.188m376.562 2.875a184 184 0 0 1-13.937 7.5c-4.895 2.403-9.41 4.99-13.876 8.109-2.267 1.554-4.648 2.862-7.05 4.195-3.277 1.967-6.353 4.223-9.457 6.45-2.43 1.683-2.43 1.683-5.094 3.253-2.476 1.384-2.476 1.384-4.586 3.742-2.246 2.195-4.015 3.56-6.625 5.188-4.661 3.026-8.89 6.477-13.125 10.063-1.007.83-1.007.83-2.035 1.68-3.802 3.228-3.802 3.228-5.902 7.66L1106 688c2.972 2.524 5.187 3.484 9.025 4.09l3.024.495 3.252.493 3.363.533q3.52.552 7.043 1.088c3.584.548 7.164 1.118 10.744 1.692q3.424.533 6.85 1.062l3.233.518c5.417.809 10.122 1.408 15.466.029a103 103 0 0 0 4-5c3.024-1.388 6.06-2.374 9.223-3.398 3.86-2.227 4.427-4.414 5.777-8.602a144 144 0 0 0 1.563-7.5c.69-3.781 1.418-7.435 2.488-11.129.846-3.005 1.32-5.709 1.574-8.808l.227-2.622L1193 649h2q1.01-3.84 2-7.687l.578-2.186c1.415-5.489 1.415-5.489 1.422-11.127-4.423-4.275-6.378-2.9-11.25.063m30.688-.75c-2.45 1.695-4.228 2.266-7.063 3.062-3.474 1.042-3.474 1.042-5.812 3.688L1205 637l-.543 2.371c-.95 4.289-1.567 8.224-1.457 12.629h-2l-.586 3.07-.789 4.055-.383 2.016c-.8 4.085-1.905 7.923-3.242 11.859a150 150 0 0 0-1.062 5.313c-.829 4.578-.829 4.578-1.938 5.687-.04 2-.043 4 0 6 4.869-.594 8.534-2.727 12.75-5.062 16.682-8.976 33.58-15.784 51.495-21.92A54 54 0 0 0 1264 660c-.336-2.873-.556-4.544-2.607-6.65l-2.077-1.436-2.296-1.62-2.457-1.669-2.5-1.747A1089 1089 0 0 0 1245 642a3088 3088 0 0 1-5.312-3.75l-2.239-1.55a747 747 0 0 1-5.867-4.118l-3.582-2.52-1.712-1.22c-3.834-3.103-3.834-3.103-7.85-1.53M1486 629l.41 1.977a296 296 0 0 1 1.274 6.984l.373 2.18q.378 2.222.75 4.445c.591 3.433 1.275 6.702 2.236 10.059.927 3.249 1.423 6.319 1.832 9.668 1.204 8.843 1.204 8.843 5.125 16.687 2.955 1.813 5.927 3.147 9.125 4.48 3.17 1.676 4.048 2.879 5.75 5.957 1.293 2.091 1.293 2.091 3.125 3.563 3.924.663 7.589.05 11.492-.592 3.007-.49 6.022-.907 9.04-1.326 5.761-.814 11.518-1.649 17.262-2.578q3.201-.503 6.415-.903l2.998-.417c.878-.11 1.755-.218 2.66-.33 2.383-.687 2.383-.687 3.433-3.304.794-2.891 1.02-3.868-.3-6.55a79 79 0 0 0-5.875-5.25l-1.762-1.457c-4.51-3.695-9.161-7.176-13.926-10.54a107 107 0 0 1-4.789-3.655c-3.24-2.567-6.61-4.895-10.023-7.223l-2.118-1.446a3445 3445 0 0 0-4.36-2.967c-2.04-1.39-4.075-2.79-6.108-4.192-6.614-4.527-13.174-8.601-20.453-12.016C1497 629 1497 629 1494.289 627.34c-3.871-2.266-5.016-.958-8.289 1.66m-23.812.563A330 330 0 0 0 1459 633l-6 4a356 356 0 0 0-7.258 5.781 286 286 0 0 1-5.797 4.563l-3.007 2.343-2.786 2.137c-2.444 2.471-2.969 3.742-3.152 7.176l1 3c2.566 1.31 2.566 1.31 5.773 2.383 1.21.44 2.419.882 3.664 1.336l1.95.696c10.526 3.76 20.825 7.778 30.8 12.855 3.919 1.97 7.344 3.504 11.813 3.73 2.274-1.849 2.274-1.849 2.25-4.687-.221-2.935-.796-5.338-1.68-8.125-1.026-3.936-1.466-7.978-2.007-12.004-.483-3.192-.483-3.192-1.567-6.18-1.058-3.19-1.517-6.173-1.934-9.504-.805-6.756-.805-6.756-4.062-12.5-5.155-2.64-10.097-4.605-14.812-.437M830 628a418 418 0 0 0-2 3.813l-1.125 2.144c-1.072 2.132-1.072 2.132-.875 5.043h-2l-2 8h-2c-2.076 4.624-3.7 9.1-5 14h-2l-2 8h-2l-2 9 3.043 1.25c9.245 3.874 17.522 8.308 25.957 13.75a864 864 0 0 0 7.852 4.672c1.917 1.185 3.67 2.464 5.46 3.828 2.624 1.87 2.624 1.87 5.563.75L857 701l-1-10h-2l-.437-3.687c-.39-3.14-.887-6.22-1.563-9.313h-2l-.113-1.687c-.403-4.677-1.214-8.59-3.004-12.97-1.558-4.135-2.647-8.412-3.84-12.663-2.495-12.115-2.495-12.115-8.043-22.68a100 100 0 0 0-5 0m-206 30-1.062 2.688c-2.016 3.446-2.396 3.646-5.688 5.25-1.975 1.08-1.975 1.08-3.25 3.062-.376 5.118.114 9.954 1 15l1 1c.287 1.91.515 3.83.719 5.75l.386 3.531.79 7.438.386 3.531.346 3.266c.112 2.421.112 2.421 1.373 3.484.397 2.18.743 4.37 1.063 6.563l.535 3.628L622 725c1.39.536 2.787 1.053 4.188 1.563l2.355.878c3.57.812 5.93.506 9.08-1.448 1.87-1.33 3.688-2.712 5.502-4.118 4.427-3.346 8.835-6.582 13.563-9.5 5.029-3.12 9.706-6.605 14.414-10.187 5.18-3.91 10.532-7.565 15.882-11.235 8.464-5.82 16.76-11.843 25.016-17.953l-1-5c-16.855-2.267-33.735-4.289-50.632-6.217q-5.227-.598-10.453-1.2-5.043-.58-10.087-1.157l-3.778-.436-3.475-.395-3.053-.35c-2.597-.293-2.597-.293-5.522-.245m675 11c-1.117 4.537-1.117 4.537-.028 8.865l1.52 1.373 1.637 1.545 1.746 1.53c6.086 5.61 6.086 5.61 7.125 7.687h2l.688 1.688c1.686 2.97 3.842 4.957 6.312 7.312 2.672 2.61 4.926 4.889 7 8h2l1 3h2l.625 1.688c1.996 3.357 4.16 5.061 7.375 7.312 1.918-.336 1.918-.336 4-1a104 104 0 0 1 5.5-.125l2.844-.008c2.656.133 2.656.133 4.828.785L1359 719c2.813-2.23 2.813-2.23 5-5v-2l3-1c1.854-1.754 1.854-1.754 3.625-3.875l1.852-2.117c1.709-2.03 1.709-2.03 2.523-5.008l3-1c1.265-1.455 2.53-2.912 3.719-4.43 1.336-1.638 2.78-3.081 4.281-4.57 1.764-1.96 3.49-3.947 5.21-5.945a112 112 0 0 1 3.392-3.735c1.59-1.65 1.59-1.65 3.398-4.32-.314-2.638-.314-2.638-1-5-31.276-9.163-66.082-5.548-98-2m-699 1c-1.699 1.886-1.699 1.886-3.125 4.5-.59.991-1.18 1.983-1.79 3.004l-.984 1.676c-1.224 2.024-2.511 3.997-3.812 5.972l-1.398 2.149a440 440 0 0 1-2.778 4.215c-2.426 3.481-2.426 3.481-2.88 7.531 1.2 3.057 3.335 4.817 5.767 6.953h2l.688 1.688c2.06 3.63 4.718 6.538 8.5 8.375 2.394 1.238 2.61 2.535 3.812 4.937 1.916 2.101 3.943 4.032 6 6l3-1c.18-4.77.308-9.35-.875-14-1.167-4.61-1.641-9.218-2.125-13.937-.594-5.747-1.308-11.366-2.566-17.012-.427-2.016-.697-4.005-.934-6.051-.22-3.107-.22-3.107-2.5-5zm147 2c-1.899 2.303-1.899 2.303-3 5l-2 2c.879 6.81 3.39 12.156 6.547 18.21 2.987 5.734 5.22 11.731 7.453 17.79h2l.25 2.5c.932 4.348 2.657 7.583 4.75 11.5h9c.82-1.559 1.63-3.122 2.438-4.687l1.37-2.637c1.152-2.586 1.755-4.89 2.192-7.676h2q1.691-4.061 3.375-8.125l.96-2.305c1.717-4.148 3.31-8.286 4.665-12.57h2l2-8h2v-2c-8.89-2.3-17.823-4.312-26.812-6.187l-3.85-.827-3.733-.779-3.339-.704c-3.509-.54-6.722-.75-10.266-.503m462 29-2.234 1.206c-4.389 2.492-4.389 2.492-7.204 6.583l-.562 2.836-.625 2.852c-.79 5.311.587 7.183 3.625 11.523l1.625 2.875L1205 731h2l.629 1.977c3.485 7.685 9.685 16.69 17.36 20.511 3.76.272 5.02-.133 8.011-2.488 3.815-5.523 9-14.133 9-21h2l1.68-3.36c6.32-12.64 6.32-12.64 7.442-14.696 1.084-2.044 1.084-2.044.878-4.944h2q2.257-4.684 4.5-9.375l1.3-2.695 1.231-2.578 1.143-2.38c.955-1.923.955-1.923.826-3.972h2c1.686-3.51 1.686-3.51 1.625-7.312L1268 677c-19.285 0-42.697 14.705-59 24m-492-22a95 95 0 0 0-7 5 1275 1275 0 0 1-4.102 3.102l-2.028 1.528c-2.34 1.714-4.765 3.242-7.245 4.745-4.99 3.08-9.564 6.592-14.187 10.188-5.237 4.07-10.423 7.85-16.2 11.132-4.267 2.488-8.226 5.43-12.238 8.305l-3.672 2.598-3.828 2.715-1.854 1.311c-2.369 1.687-4.586 3.316-6.646 5.376v3l3.224.025q15.198.117 30.397.263 7.81.075 15.619.134 7.548.056 15.094.134 2.947.03 5.896.056c11.907.113 23.722.295 35.492 2.324 2.621.45 2.621.45 6.278.064 2.361-1.993 3.853-4.136 5-7-.124-3.723-.83-6.487-2-10h-2l-.328-2.645c-.693-3.46-1.776-5.934-3.422-9.043-2.104-4.07-4.15-8.147-6.062-12.312l-1.208-2.625A36 36 0 0 1 738 691h-2l-2-7-3.062-.312c-4.173-.729-7.116-1.924-10.938-3.688zm704.352 1.305c-3.181.94-5.871.49-9.165.195-5.15-.132-7.921.419-11.734 4.023-2.268 2.41-4.365 4.907-6.453 7.477q-1.933 2.16-3.875 4.313a439 439 0 0 0-5.75 6.875c-2.334 2.764-4.818 5.255-7.375 7.812a457 457 0 0 0-3.5 4c-2.718 3.14-5.52 6.11-8.5 9l1 2c6.127.3 11.54-.828 17.488-2.23l3.054-.7q3.222-.738 6.442-1.485c5.572-1.293 11.15-2.561 16.727-3.827l3.291-.748a587 587 0 0 1 23.436-4.822 711 711 0 0 0 26-5.313l3.382-.734 3.114-.711 2.751-.618c2.485-.872 3.64-1.815 5.315-3.812-7.23-5.221-14.954-9.216-23-13l-2.245-1.058a780 780 0 0 0-7.068-3.255l-2.206-1.022c-7.332-3.282-13.532-5.962-21.13-2.36M1278 682c-2.902 2.53-4.334 5.563-6 9l-1.021 2.054c-4.705 8.181-4.705 8.181-6.979 16.946h-2c-1.257 2.906-2 4.796-2 8h-2l-1.54 3.078-9.71 19.422-1.422 2.875a137 137 0 0 1-2.656 5c-1.32 2.309-1.32 2.309-2.672 5.625.829 2.2.829 2.2 2 4l2.629-1.398c9.817-5.005 19.957-8.637 30.434-11.977l2.052-.656A749 749 0 0 1 1290 740l2.194-.661c7.941-2.193 16.298-2.809 24.449-3.839l3.806-.5 3.448-.437c5.324-.917 5.324-.917 9.345-4.192.777-2.373 1.094-3.875.758-6.371-2.558-3.508-5.704-6.197-9-9-3.982-3.885-7.621-7.977-11.23-12.207L1312 701h-2l-1-3h-2l-.625-2.187c-1.771-3.624-4.24-5.33-7.375-7.813l-2-3h-2l-.75-1.937c-1.034-2.187-1.034-2.187-2.992-2.715-4.64-.715-8.888 0-13.258 1.652m-477 4c-2.4 4.383-4.358 9.02-5 14h-2l-.71 1.628c-1.804 4.1-3.654 8.168-5.614 12.196l-1.178 2.428q-1.196 2.457-2.406 4.906c-3.07 6.146-3.07 6.146-4.092 12.842 1.813 2.398 1.813 2.398 4 4 7.821-2.336 15.575-4.84 23.313-7.437 6.335-2.127 12.677-4.216 19.062-6.188 7.582-2.343 15.107-4.836 22.625-7.375.37-3.348.37-3.348 0-7-1.819-2.167-1.819-2.167-4.437-3.625l-2.778-1.754c-3.155-1.836-6.308-3.66-9.527-5.383-2.352-1.29-4.609-2.69-6.883-4.113-4.334-2.625-8.792-4.852-13.375-7l-1.999-.94c-4.453-2.28-4.453-2.28-9.001-1.185m130.934 11.625c-1.2.374-2.4.747-3.635 1.133q-1.931.62-3.861 1.242l-3.936 1.244C908.504 705.061 896.673 709.281 885 714c-.954 3.627-1.145 6.4 0 10 3.731 3.315 7.814 5.654 12.192 8.02 2.421 1.312 4.768 2.737 7.12 4.168l2.372 1.39c3.219 1.976 6.267 4.18 9.308 6.418 1.96 1.213 1.96 1.213 4.156.727 1.877-.68 1.877-.68 3.602-1.723 3.346-1.487 6.613-1.636 10.25-2v-4h2l.55-2.309c1.546-6.347 3.285-12.53 5.45-18.691 1.746-4.99 3.324-9.728 4-15h-2l-.75-1.937c-1.04-2.168-1.04-2.168-2.949-2.793-3.135-.368-5.36.408-8.367 1.355m624.242-.566c-1.277.22-2.554.442-3.87.67l-3.994.708c-8.282 1.468-16.424 2.818-24.835 3.239-2.594.34-4.275.925-6.477 2.324-.945 2.002-.945 2.002-1.437 4.313-1.777 5.93-4.985 8.86-10.25 11.937A267 267 0 0 1 1500 723c-2.424 7.14-2.439 14.33-2.625 21.813l-.115 3.87A778 778 0 0 0 1497 779l4 1v-2h2c1.582-1.484 1.582-1.484 3.125-3.375l1.633-1.898c1.437-1.643 1.437-1.643 1.242-3.727h2c1.2-1.701 2.398-3.405 3.566-5.129 1.41-1.84 2.788-3.093 4.621-4.496 2.854-2.41 3.804-3.843 4.813-7.375h2c1.503-1.447 1.503-1.447 3.063-3.375 3.527-4.154 7.157-8.2 10.824-12.23 4.273-4.16 4.273-4.16 6.113-9.395l1.766-.75c2.565-1.435 4.071-3.027 5.984-5.25l1.86-2.125c1.589-1.754 1.589-1.754 1.39-3.875l1.75-.687c2.847-1.661 4.37-3.628 6.25-6.313v-2l1.813-.687c2.75-1.651 3.712-3.51 5.187-6.313l-2-3c-4.742-.376-9.159.23-13.824 1.059M1106 698l-.809 1.84c-1.73 3.138-4.455 4.89-7.191 7.16-1.436 4.308-.792 8.128.973 12.3 1.204 3.165 1.678 6.163 2.152 9.513l.508 3.519L1102 735h2l.184 2.195c.43 4.976.886 9.892 1.816 14.805h2l1 5c5.46-.285 7.965-3.502 11.5-7.25l1.684-1.738a683 683 0 0 0 3.274-3.406c2.147-2.236 4.344-4.42 6.542-6.606l2.188-2.25c10.942-10.7 10.942-10.7 16.187-14.062 2.629-1.56 2.629-1.56 4.5-3.563 2.6-2.6 5.49-4.58 8.516-6.66.53-.484 1.062-.967 1.609-1.465v-3c-5.787-1.538-11.514-2.645-17.437-3.5l-2.636-.388a599 599 0 0 0-18.876-2.408c-6.705-.76-13.376-1.71-20.051-2.704m-152 8c-1.38 2.948-1.79 5.768-2 9h-2l-1 3.75-.562 2.11c-.571 2.429-.571 2.429-.438 6.14h-2l-1 3.75-.562 2.11c-.571 2.429-.571 2.429-.438 6.14h-2c-.419 2.79-.419 2.79 0 6l2.313 2.313c2.692 2.692 3.279 3.856 4.355 7.355l.77 2.458L950 759l2.971.487q6.86 1.127 13.716 2.263l2.483.41c10.697 1.776 21.375 3.614 32.012 5.722 3.88.818 3.88.818 7.818 1.118 2.316-3.221 2.316-3.221 3-7h-2l-2-6h-2l-.781-2.137c-1.322-3.106-2.916-5.823-4.719-8.676l-1.844-2.957L997 740h-2l-.625-2.012c-1.884-4.094-4.546-7.315-7.375-10.8l-1.656-2.1-3.047-3.79L981 720h-2l-1-4h-2l-.75-1.687c-1.48-2.737-3.185-4.99-5.25-7.313h-2l-2-4c-4.367 0-8.252.664-12 3m-377 0-1.312 2.688C574 712 574 712 572.313 714.75c-1.481 2.104-1.481 2.104-1.313 4.25h-2l-1.375 2.813C566 725 566 725 564 728v3h-2l-2 6h-2l-2 7h-2c-1.196 2.837-1.196 2.837-2 6l2 3c4.998.437 9.493-.354 14.367-1.426l2.058-.449q2.141-.47 4.28-.95c2.155-.484 4.313-.954 6.47-1.423 12.567-1.813 12.567-1.813 22.5-8.057 1.506-5.55 1.506-5.55-.362-10.82-2.076-2.085-2.076-2.085-4.313-1.875l-.812-1.937c-1.075-2.394-1.075-2.394-4.188-3.063a78 78 0 0 1-2-4c-1.376-1.678-1.376-1.678-2.969-3.234l-1.73-1.739-1.801-1.777-1.8-1.824-1.731-1.723-1.58-1.573c-1.35-1.34-1.35-1.34-3.389-1.13m500.223 4.2c-1.811 2.167-3.223 3.898-3.223 6.8l-3 1c-.733 2.015-.733 2.015-1 4h-2c-1.588 1.715-1.588 1.715-3.125 3.875l-1.633 2.18c-1.421 1.841-1.421 1.841-1.242 3.945h-2l-2 5h-2c-1.355 1.643-1.355 1.643-2.687 3.813l-1.59 2.457q-1.808 2.866-3.602 5.742L1046.25 752l-1.734 2.813C1043 757 1043 757 1041 758c-.975 2.926-1.469 4.99-.137 7.86.372.611.745 1.222 1.13 1.85L1044 771c6.496.127 12.992.214 19.489.275q3.315.037 6.631.102c3.175.06 6.35.09 9.525.111l3.002.078c2.549.002 4.86-.03 7.353-.566 2.181-2.27 2.181-2.27 3-5 4.16-5.58 4.16-5.58 7-7q-.498-3-1-6l-.332-1.992q-.546-3.255-1.105-6.508l-.37-2.223c-.735-4.26-1.787-8.179-3.193-12.277a134 134 0 0 1-.937-5.312c-.874-5.102-2.268-9.84-4.063-14.688-6.097-1.52-6.097-1.52-11.777.2M1463 713.561l-2.72.524c-8.779 1.733-17.472 3.806-26.174 5.88-8.827 2.1-17.639 3.942-26.58 5.467-13.28 2.319-26.398 5.522-39.526 8.567v1l1.771.193c14.013 1.632 27.077 4.651 40.417 9.12l2.076.685c9.709 3.229 18.689 7.22 27.736 12.002l4.332 2.223c7.433 3.93 14.61 7.993 21.355 13.04 7.447 6.089 7.447 6.089 16.278 8.932 2.724-.541 2.724-.541 6.035-2.195.766-2.76 1.16-5.31 1.281-8.17l.112-2.457.107-2.627.123-2.719c.173-3.834.337-7.669.502-11.503q.184-4.201.375-8.403l.107-2.633.112-2.447.092-2.15C1491 734 1491 734 1492 731c.485-4.368.595-6.252-2.187-9.75-2.527-2.02-5.034-3.611-7.813-5.25l-1.937-2.187c-4.438-3.9-11.692-1.303-17.063-.25M1168 728a507 507 0 0 1-11.375 9.25c-3.437 2.736-6.56 5.597-9.625 8.75l-2.812 2.188L1142 750v2l-3 1v2l-1.937.813c-2.394 1.074-2.394 1.074-3.063 4.187h-2c-4.066 3.55-6.68 7.228-7.645 12.574a158 158 0 0 0-.285 7.29c-.07 3.136-.07 3.136-.722 5.308-.541 1.888-.541 1.888.515 3.73l1.45 2.035 1.656 2.344a635 635 0 0 0 8.69 11.377c3.244 4.147 3.244 4.147 4.341 6.342h2l.75 2.188c1.436 3.23 2.634 5.408 5.25 7.812 3.994-.069 6.131-.131 9-3 .52-1.876.52-1.876.781-4.035l.364-2.455.355-2.572c.817-5.725 1.74-11.348 3.103-16.97.54-2.675.536-5.251.397-7.968h2q.508-3.061 1-6.125l.563-3.445c.407-3.191.515-6.218.437-9.43h2q.506-3.343 1-6.687l.563-3.762c.358-2.91.526-5.628.437-8.551h2l3-22c-3.156 0-4.625 2.003-7 4m15.426-2.031c-1.911 4.062-2.41 7.982-2.988 12.406-.783 5.72-1.808 11.07-3.438 16.625a211 211 0 0 0-1.062 6.875c-.83 6.017-.83 6.017-1.938 7.125a71 71 0 0 0-.719 4l-.386 2.438-.395 2.562a1105 1105 0 0 1-.781 5l-.346 2.25C1171 787 1171 787 1170 788a168 168 0 0 0-.562 6.563l-.254 3.628L1169 801h-2q-.508 3.061-1 6.125l-.562 3.445c-.408 3.191-.516 6.218-.438 9.43l1-2h2c1.582-1.484 1.582-1.484 3.125-3.375l1.633-1.898c1.437-1.643 1.437-1.643 1.242-3.727h2a168 168 0 0 0 3.652-4.355c3.526-4.303 7.684-7.831 11.993-11.313L1193 792v-2l1.582-.703c5.665-3.038 11.56-7.066 15.418-12.297 1.007-3.823 1.15-6.902.945-10.836.063-3.644 1.043-5.198 3.055-8.164-.217-3.469-2.044-6.184-4-9h-2l-.75-2.125c-1.422-3.27-3.122-6.016-5.25-8.875h-2l-.797-2.2c-1.95-4.538-4.686-8.334-8.203-11.8-3.771-1.015-5.095-1.132-7.574 1.969m-341.578.867-3.754 1.213-4.032 1.326q-2.067.674-4.135 1.347c-22.396 6.61-22.396 6.61-43.927 15.278-.046 1.92-.046 1.92 1 4a60.5 60.5 0 0 0 7.063 3.25q2.206.915 4.41 1.84l2.285.952c15.012 6.413 29.015 14.893 42.129 24.583 2.122 1.492 2.122 1.492 4.82 2.375l2.293 1 1 3c2.635 2.41 2.635 2.41 6 3l1 3c2.015.733 2.015.733 4 1v2c1.39 1.408 1.39 1.408 3.188 2.813 3.114 2.582 5.986 5.286 8.812 8.187l2.813 2.813L879 812l2-1q-.427-4.064-.875-8.125l-.238-2.305c-.5-4.458-1.434-8.309-2.887-12.57a188 188 0 0 1-1-7.437c-.582-5.069-1.589-9.668-3-14.563-.561-3.526-.999-7.055-1.437-10.598-.548-3.312-1.476-6.234-2.563-9.402-.344-2.195-.344-2.195-.5-4.125-.546-4.256-.546-4.256-2.5-7.875-2.06-1.09-2.06-1.09-4.437-1.687l-2.372-.7L857 731l-3-1c-1.187-2.562-1.187-2.562-2-5-3.965 0-6.416.622-10.152 1.836m34.027 4.226c-2.107 1.728-2.107 1.728-1.875 3.938h2l.148 2.563c.368 5.57.775 10.842 2.317 16.21.738 3.071 1.117 6.16 1.535 9.29.488 3.606 1 6.935 2 10.437 1.634 5.717 2.232 11.613 3 17.5h2l.148 2.852.227 3.773c.07 1.23.14 2.46.21 3.727.4 3.513 1.043 6.394 2.415 9.648 2.032.969 2.032.969 4 1l2-5h2q1.977-3.37 3.938-6.75l1.13-1.922c1.787-3.09 3.18-5.843 3.932-9.328h2l2-6h2c1.89-2.912 3.632-5.804 5-9-.428-2.695-.428-2.695-2-5-1.538-4.357-1.98-7.477-1.5-12 .043-3.18-.017-4.474-2.191-6.844-2.69-1.879-5.472-3.506-8.309-5.156-1.87-1.245-3.715-2.52-5.563-3.796-10.58-8.428-10.58-8.428-22.562-10.141M638 747c-.685 1.888-.685 1.888-1.125 4.063l-.508 2.222L636 755h-2l-1 2c-1.594 1.035-1.594 1.035-3.5 2.063-2.412 1.251-2.412 1.251-4.5 2.937a163 163 0 0 0-.174 6.92l-.02 2.22q-.028 3.708-.046 7.418l-.04 5.296c-.116 16.125-.172 32.25-.217 48.376a6950 6950 0 0 1-.187 35.78c-.064 8.378-.098 16.756-.11 25.134-.007 5.008-.028 10.015-.082 15.023q-.073 7.067-.047 14.133 0 2.595-.044 5.19c-.555 8.87-.555 8.87 2.775 16.598 2.034 1.259 3.966 2.067 6.192 2.912l1 2h2c1.158 3.677 1.133 7.163 1.125 11l.008 3.688c-.107 2.66-.34 4.794-1.133 7.312h-2l-2.375 2.438C629 976 629 976 625 977v182l8 4 1 2h2l2 8q16.353.07 32.706.104 7.597.014 15.193.047 7.353.032 14.706.039 2.782.004 5.565.021c9.278.053 18.446-.097 27.678-1.098l2.184-.236c4.514-.548 8.679-1.407 12.968-2.877 1.492-1.938 1.492-1.938 2.125-4.312 1.934-5.119 4.348-8.254 9.188-11 6.43-1.646 10.942-1.012 16.73 1.949 2.63 1.832 4.742 4.056 6.957 6.363 24.806-10.556 47.885-22.851 67.969-41.152a213 213 0 0 1 5.843-5.098c2.512-2.15 4.982-4.279 7.188-6.75v-2l4-2v-2l3-1c-.185-4.342-.185-4.342-2-8-.71-6.115-.072-12.578 3-18 6.543-4.046 13.547-4.27 21-4l2-6h2c1.51-3.1 3.006-6.205 4.5-9.312l1.3-2.67 1.231-2.569 1.143-2.364c1.01-2.176 1.01-2.176.826-5.085h2c1.316-3.62 2-6.096 2-10h2l.586-2.23.789-2.957.773-2.918c.852-2.895.852-2.895 1.891-5.485.907-2.275 1.477-4.39 1.961-6.785.565-2.671 1.18-5.248 1.938-7.875 4.404-14.167 4.404-14.167 5.062-28.75-1.552-1.836-3.042-2.732-5.14-3.887-3.216-1.925-4.764-4.65-5.86-8.113-.746-5.213-.816-10.169 1.625-14.937C919 947 919 947 922.25 945.313c2.983-2.006 2.983-2.006 3.203-4.907.084-5.511-.5-10.698-1.875-16.027-1.15-4.733-1.813-9.57-2.578-14.379h-2l-.184-1.793c-.436-4.117-.903-8.162-1.816-12.207h-2l-.363-3.086c-1.614-9.922-6.09-19.256-10.403-28.27C903 862 903 862 902 859h-2l-.812-3.187c-1.096-3.518-1.942-5.924-4.188-8.813-2.75-.71-2.75-.71-5.812-.625-6.1-.272-9.82-1.327-14.5-5.375-3.14-3.722-2.823-7.253-2.813-11.937l-.008-3.715c.107-2.699.449-4.778 1.133-7.348-1.144-3.432-2.964-5.103-6-7h-2l-.812-1.812C863 807.002 861.904 805.587 860 804h-2v-2h-2v-2c-2.637-2.398-2.637-2.398-6-3l-1-3c-1.647-1.56-1.647-1.56-3.727-3.04l-2.354-1.745c-1.26-.91-1.26-.91-2.544-1.84l-2.606-1.897c-11.417-8.213-23.105-14.944-35.945-20.652a216 216 0 0 1-5.48-2.592l-3.469-1.672-3.07-1.496c-2.882-1.095-4.758-1.482-7.805-1.066-2.108 2.364-2.108 2.364-4 5-5.176 3.478-12.07 2.694-18 2-3.344-1.587-5.325-3.65-7-7h-2l-.25-3.312c-.422-3.62-.422-3.62-2.375-5.563-17.385-8.235-46.803-3.28-65.823-3.255q-6.705.006-13.409-.004-5.196-.005-10.392 0-2.475 0-4.952-.002-3.426-.003-6.853.007l-3.93.002c-2.938-.082-2.938-.082-5.016 1.127m-41.129 5.074-3.113.769-3.32.845-6.79 1.68-3.399.842c-5.293 1.287-10.613 2.446-15.94 3.584-3.758.79-3.758.79-7.309 2.206-.838 1.98-.838 1.98-1.5 4.313-.931 3.062-1.883 5.912-3.5 8.687l-2 1v2l-2.937.938c-2.904.757-2.904.757-4.063 2.062-1.308 8.377-1.155 16.922-1.125 25.375l.006 3.956c.048 10.91.446 21.78 1.119 32.669l3 1v-2h2l2-6h2l.988-1.863 1.324-2.45 1.301-2.425c1.293-2.108 2.633-3.548 4.387-5.262.714-2.103.714-2.103 1-4h2l2-6h2l2-6h2c1.366-1.718 1.366-1.718 2.625-3.875l1.352-2.18c1.178-1.874 1.178-1.874 1.023-3.945h2c1.598-2.178 1.598-2.178 3.125-4.875l1.633-2.742c1.396-2.23 1.396-2.23 1.242-4.383h2c1.618-2.172 1.618-2.172 3.25-4.937a296 296 0 0 1 8.684-13.286c1.237-1.717 1.237-1.717 1.066-3.777h2l.875-1.937C603 760 603 760 605 759v-7c-3.455-1.152-4.657-.8-8.129.074m14.61 10.172c-1.57 1.86-2.882 3.75-4.168 5.817l-1.325 2.097c-1.146 1.786-1.146 1.786-.988 3.84h-2l-1 4h-2l-2 6h-2c-1.515 2.038-1.515 2.038-3.062 4.688-3.486 5.665-7.245 11.062-11.118 16.464-1.554 2.432-2.4 4.037-2.82 6.848h-2l-2 5h-2l-1.312 2.75c-1.396 2.688-2.886 4.847-4.688 7.25v2h-2c-1.366 1.718-1.366 1.718-2.625 3.875l-1.352 2.18c-1.178 1.874-1.178 1.874-1.023 3.945h-2l-2 6h-2c-.787 2.258-.787 2.258-1 5l1.46 2.293c1.822 3.203 1.912 5.177 1.852 8.832l-.011 3.133C556 867 556 867 554 870v4h2l2 5h2l.781 1.703c1.36 2.564 2.947 4.75 4.719 7.047l1.844 2.422L569 892h2l.75 1.625c2.458 4.67 5.242 8.901 9.25 12.375h2l1 4h2l.688 2.188c1.568 3.361 3.668 5.233 6.312 7.812l3 5h2l.813 1.75c1.216 2.306 2.49 4.27 4.187 6.25h2l.75 2.25c1.387 3.052 2.557 4.75 5.25 6.75 2.707-.14 2.707-.14 5-1 .962-7.746 1.143-15.389 1.13-23.188l.005-3.893q.005-5.255 0-10.51c-.003-3.71 0-7.42 0-11.129q.004-9.377-.005-18.754-.007-10.702.002-21.403.007-9.284.003-18.567-.003-5.5.001-11c.017-20.538-.402-41.032-1.136-61.556-2.94-.317-2.94-.317-4.52 1.246M948 767v2h-2c-1.45 2.341-2.043 3.58-1.758 6.36l.633 2.39.617 2.422L946 782h2l2 10h2l.188 2.313c.947 4.3 2.625 7.874 4.492 11.847 3.213 6.912 5.813 14.089 8.508 21.215l.794 2.093c1.181 3.146 2.318 6.24 3.018 9.532h2l.367 1.863.508 2.45.492 2.425c.578 2.515.578 2.515 2.633 5.262 3.584.25 3.584.25 7 0q1.256-2.934 2.5-5.875l1.406-3.305c1.215-2.627 1.215-2.627 1.094-4.82h2l.664-1.512c2.634-5.964 5.379-11.87 8.164-17.765 1.304-2.535 1.304-2.535 1.172-4.723h2c1.887-4.289 3.582-8.528 5-13h2l2-7h2c1.011-3.05 1.011-3.05 0-6h-2l-2-10c-7.079-1.9-14.25-3.259-21.451-4.604-2.083-.39-4.165-.788-6.246-1.185C964.26 767.977 964.26 767.977 948 767m-433.86 6.363-3.382.94-3.508 1.01q-3.428.965-6.86 1.925l-3.29.925c-4.01 1.083-8.035 1.985-12.1 2.837l-1 11h-2a56.5 56.5 0 0 0 4 7h2l.781 1.734c1.333 2.477 2.87 4.4 4.719 6.516l1.844 2.14c1.51 1.842 1.51 1.842 3.656 1.61l.793 1.754c3.1 5.767 8.39 10.843 13.207 15.246h2l.793 1.754c2.104 3.916 5.228 6.977 8.207 10.246l1.395 1.664c1.327 1.586 1.327 1.586 3.605 3.336l5-1v-64c-5.18-3.15-5.18-3.15-8-3l-1-4c-4.107-1.126-6.786-.794-10.86.363m409.298 5.824c-1.199 2.344-2.054 4.224-2.438 6.813h-2c-1.848 3.613-3.55 7.209-5 11h-2l-.875 2.438C910 802 910 802 908 803a129 129 0 0 0-2 7h-2c-1.948 4.39-1.948 4.39-1.277 8.93a184 184 0 0 0 2.28 3.953c1.147 2.435 1.208 4.193 1.247 6.867.091 2.165.091 2.165.75 4.25a69 69 0 0 0 8 4l2.223.98a600 600 0 0 0 7.215 3.082c6.15 2.6 12.271 5.244 18.351 8.004l3.416 1.541q3.316 1.5 6.619 3.026l3.055 1.375 2.705 1.239c2.68.835 3.847.82 6.416-.247l2-2c-.404-3.84-1.771-7.242-3.187-10.812l-1.336-3.407-.718-1.828c-1.39-3.576-2.729-7.172-4.072-10.765l-.807-2.158L955 821h-2l-2-10h-2l-.332-1.687c-1.11-5.346-2.64-10.244-4.668-15.313h-2l-2-9h-2l-.437-2.375c-.441-2.59-.441-2.59-1.563-4.625-4.75-1.306-8.7-2.11-12.562 1.188M1045 779c-2.277 2.815-2.277 2.815-2 6h-2l-.25 1.875c-.75 2.125-.75 2.125-2.437 3.188L1036 791l-2.625 1.688c-4.666 1.814-8.518 1.109-13.375.312v3h-2l-2 7h-2q-1.256 2.434-2.5 4.875l-1.406 2.742c-1.233 2.249-1.233 2.249-1.094 4.383h-2l-.701 1.602c-2.643 5.995-5.412 11.923-8.236 17.836l-1.264 2.658A902 902 0 0 1 988 855l2.438 2.375c4.157 4.259 3.684 7.566 3.625 13.25l-.014 2.43q-.02 2.972-.049 5.945h-2c-2.167 1.833-2.167 1.833-4 4v2c-5.244 1.748-9.473 2.194-15 2q-1.228 2.339-2.437 4.688l-1.372 2.636c-1.15 2.586-1.754 4.89-2.191 7.676h-2c-1.257 2.906-2 4.796-2 8h-2c-1.257 2.906-2 4.796-2 8h-2l-1.375 3.25c-.874 2.055-1.77 4.023-2.812 6-1.024 1.882-1.024 1.882-.813 4.75h-2c-1.257 2.906-2 4.796-2 8h-2l-1 4c3.064-1.411 5.563-3.097 8.2-5.195l2.387-1.888L958 935a2601 2601 0 0 1 4.395-3.43l2.187-1.706c6.801-5.302 13.62-10.569 20.547-15.704a495 495 0 0 0 7.062-5.426c5.016-3.91 10.094-7.734 15.184-11.547l2.691-2.021c.852-.639 1.705-1.277 2.582-1.936l2.318-1.737A136 136 0 0 1 1020 888v-2l1.715-.816c2.395-1.241 4.602-2.628 6.847-4.121l2.317-1.528c3.96-2.7 3.96-2.7 5.527-7.023l.094-2.824c.285-4.59 1.134-7.676 3.5-11.688v-2l1.875-.875c2.258-1.062 2.258-1.062 4.125-3.125 2.314-.773 4.647-1.397 7.004-2.023 2.203-.794 2.203-.794 2.773-3.079L1056 845h2l1.3-3.09c5.157-12.017 11.512-23.602 18.434-34.687 1.43-2.086 1.43-2.086 1.266-4.223h2l.988-1.863 1.324-2.45 1.301-2.425c1.293-2.108 2.633-3.548 4.387-5.262.714-2.103.714-2.103 1-4h2c.167-2.917.167-2.917 0-6-2.421-2.421-3.014-2.255-6.326-2.275l-2.71-.029-2.933.003-3.004-.013q-3.147-.008-6.294-.002c-3.22.003-6.439-.02-9.659-.045q-3.053-.004-6.105-.002l-2.933-.028-2.71.019-2.39-.002zm62.875 12.063c-4.328 2.163-6.293 8.586-7.875 12.937h-2a2506 2506 0 0 0-4.5 7.875c-.43.746-.859 1.493-1.3 2.262l-1.231 2.168-1.143 2c-.972 1.68-.972 1.68-.826 3.695h-2a1834 1834 0 0 0-3 6.375l-1.687 3.586c-1.445 2.793-1.445 2.793-1.313 5.039h-2l-.734 1.688c-2.019 4.595-4.129 9.08-6.532 13.488-.983 2.115-.983 2.115-.734 5.824 8.526-2.054 17.03-4.158 25.417-6.732a348 348 0 0 1 13.638-3.871 716 716 0 0 0 8.987-2.463q2.256-.618 4.524-1.191c8.61-1.906 8.61-1.906 15.264-7.163 1.043-2.553 1.693-4.87 2.17-7.58l.648-2.17c.59-1.978.59-1.978-.941-4.014l-1.895-2.254-1.957-2.375L1135 816c-3.931-4.862-3.931-4.862-5-7h-2l-.687-2.687c-1.516-3.825-3.354-5.492-6.313-8.313q-1.242-1.891-2.437-3.812c-1.172-1.8-1.172-1.8-2.563-3.188-2.955-.482-5.19-.024-8.125.063M471 801c-2.584 11.364-1.164 24.587-1.168 36.176l-.01 6.767q-.009 7.076-.007 14.153c0 5.976-.014 11.951-.031 17.927q-.015 6.99-.013 13.98 0 3.297-.013 6.596c-.05 15.233.737 30.242 2.242 45.401l4-1 1-4h2l2-6h2l2-5h2c1.593-1.946 1.593-1.946 3.125-4.375l1.633-2.46c1.408-2.038 1.408-2.038 1.242-4.165h2l1-4h2c2.602-3.497 4.55-6.892 6-11h2c1.616-2.208 1.616-2.208 3.25-5 2.68-4.355 5.5-8.442 8.684-12.441 1.254-1.52 1.254-1.52 1.066-3.559h2c2.334-3.294 1.904-5.728 1.297-9.582-.678-5.52-1.037-11.643.402-17.04.559-2.424.559-2.424-.922-4.37l-1.84-1.883-1.96-2.07L516 842a333 333 0 0 1-3.187-3.75c-2.172-2.53-4.32-5.025-6.813-7.25h-2l-.625-2.187c-1.826-3.736-4.118-5.249-7.375-7.813l-1-2h-2l-.625-2.187c-1.771-3.624-4.24-5.33-7.375-7.813l-2-3h-2l-.812-1.812C479 802.002 477.904 800.587 476 799c-2.324-.185-2.324-.185-5 2m431 40 2 8h2l2 8h2l2 8h2l.313 2.625c.735 3.61 2.016 6.094 3.687 9.375 4.027 9.935 7.41 20.385 9 31h2l.184 1.906A517 517 0 0 0 931 926h2l1 15 4-1v-2h2l.7-1.582 2.077-4.691a511 511 0 0 1 2.602-5.704l1.371-2.96 1.297-2.778c1.081-2.18 1.081-2.18.953-4.285h2l2-9h2c1.257-2.906 2-4.796 2-8h2a481 481 0 0 0 3.063-6.187l1.722-3.481c1.27-3.48 1.42-4.894.215-8.332l-1.437-2.125C961 876 961 876 960.922 873.485c-.127-3.314-.456-5.493-1.922-8.485-4.26-2.791-8.79-4.38-13.567-6.086-4.325-1.625-8.49-3.606-12.683-5.539-10.107-4.57-20.163-9.023-30.75-12.375m226.5 8.125-2.246.676q-2.39.72-4.777 1.446c-3.316 1.008-6.636 2.003-9.956 2.997l-5.054 1.517c-4.8 1.443-9.603 2.875-14.412 4.286q-2.147.63-4.292 1.27c-2.979.884-5.955 1.73-8.97 2.484-4.945 1.07-4.945 1.07-8.293 4.511L1070 871l-1.062 3.063c-1.8 4.523-1.8 4.523-.938 8.937h2l.813 2.188c1.8 4.264 3.842 7.619 7.187 10.812l1 2h2l.813 2.813c1.122 3.011 1.845 4.15 4.187 6.187l1 2h2l.813 2.188c1.186 2.81 2.462 5.296 4.187 7.812h2l2 6h2l2 5h2l2 6h2l.875 2.438c.858 2.695.858 2.695 3.125 3.562a76 76 0 0 0 5-1l.411-2.58a3522 3522 0 0 1 1.56-9.633q.337-2.07.666-4.14c1.697-10.636 3.984-20.868 7.48-31.061a531 531 0 0 0 2.078-6.234l.651-1.984q.938-2.86 1.873-5.72a95 95 0 0 1 2.937-7.421c1.536-3.106 1.536-3.106 1.344-6.227h2c3.59-7.194 3.59-7.194 5-15-1.04-2.442-1.04-2.442-3-4-4.194 0-7.548.91-11.5 2.125M543 879v76c3.684.737 6.438 1.126 10.094 1.13l2.993.009 3.198-.006 3.313.003q3.461 0 6.922-.006c3.533-.005 7.066 0 10.6.007q3.363 0 6.728-.004l3.204.006 2.983-.01 2.62-.002c2.247-.122 4.19-.5 6.345-1.127l1-4h2l1-3c-1.846-2.599-1.846-2.599-4-5l-1-2h-2l-.781-1.703c-1.36-2.564-2.947-4.75-4.719-7.047l-1.844-2.422L590 928h-2l-.75-1.625c-2.112-4.013-4.41-7.535-7.625-10.75-2.815-2.815-5.015-5.798-7.293-9.05L571 905h-2l-.762-1.691c-2.976-5.55-7.429-10.5-11.863-14.934-2.71-2.71-4.787-5.645-6.945-8.8L548 878c-2.925-.224-2.925-.224-5 1m-12 0c-2.723 2.932-4.905 5.857-7.125 9.188C522 891 522 891 520.313 892.625c-1.62 1.697-1.92 3.094-2.313 5.375h-2l-.812 1.813C514 902 514 902 512.438 903.5c-1.701 1.775-2.026 3.11-2.438 5.5h-2c-1.258 1.691-1.258 1.691-2.437 3.813-1.629 2.802-3.273 4.91-5.563 7.187-.714 2.103-.714 2.103-1 4h-2c-1.352 1.53-1.352 1.53-2.68 3.543l-1.566 2.256-1.629 2.389a2924 2924 0 0 1-3.18 4.605l-1.522 2.208c-1.204 1.691-2.496 3.318-3.806 4.929-1.816 1.887-1.816 1.887-1.617 4.008l1 2.062 1.382 3.092c2.934 3.26 3.344 3.35 7.478 3.59q3.016-.004 6.03-.096c1.41-.01 1.41-.01 2.848-.018 3.504-.032 7.008-.115 10.512-.193L534 956v-77zm502.367 7.633-2.195 1.695-2.297 1.797-4.445 3.445-2.226 1.73a512 512 0 0 1-6.474 4.9 234 234 0 0 0-8.293 6.487c-3.077 2.49-6.2 4.885-9.41 7.2l-2.078 1.499q-2.055 1.476-4.123 2.933c-1.644 1.18-3.24 2.425-4.826 3.681v2l-2.125.75c-4.428 1.925-7.96 4.335-11.375 7.75-2.651 2.651-5.377 4.427-8.5 6.5-2.279 1.692-4.515 3.438-6.75 5.188-5.987 4.68-5.987 4.68-8.25 5.812v5q12.217.231 24.435.443 5.674.098 11.347.205 5.475.104 10.951.195 2.088.036 4.177.078 2.926.056 5.853.1l3.364.061c2.513-.072 4.52-.216 6.873-1.082 1.202-1.953 1.202-1.953 1.938-4.5l.988-2.977a805 805 0 0 0 4.324-14.595c.803-2.814 1.608-5.58 2.715-8.291 2-5.094 3.28-10.443 4.736-15.713 3.571-12.742 3.571-12.742 6.486-18.111 1.05-2.343.954-4.277.813-6.813-2.684 0-3.526.993-5.633 2.633M1056 887c-.945 2.241-.945 2.241-1.562 4.813-.768 2.804-1.534 5.425-2.626 8.125-.995 2.158-.995 2.158-.812 5.062h-2l-.586 2.633-.789 3.492-.773 3.445c-.8 3.22-1.773 6.296-2.852 9.43a1348 1348 0 0 0-2.914 9.473 550 550 0 0 1-2.234 7.086L1037.75 944l-1.016 3.125c-.706 2.764-.88 5.04-.734 7.875 5.9 1.023 11.632 1.145 17.613 1.133l3.06.003q3.193 0 6.386-.006c3.233-.005 6.465 0 9.697.007q3.116 0 6.232-.004l2.893.006c4.554-.016 9.095-.128 13.64-.44l2.416-.161c2.635-.687 3.328-1.562 4.75-3.85 1.451-3.37 1.451-3.37 1.25-5.813-1.201-2.404-2.402-4.664-3.937-6.875h-2l-.777-2.176c-1.297-2.995-2.872-5.372-4.785-8.011-3.363-4.664-3.363-4.664-4.438-6.813h-2l-2-6h-2l-.742-1.621c-1.579-2.985-3.451-5.672-5.383-8.442l-1.196-1.716c-3.288-4.704-6.652-9.352-10.05-13.979A158 158 0 0 1 1061 885c-2.324-.185-2.324-.185-5 2m-513 77c-.13 2.046-.189 4.096-.221 6.146l-.035 1.947q-.054 3.216-.096 6.43l-.07 4.5q-.072 4.745-.136 9.489-.083 5.995-.185 11.992c-.39 23.763-.39 23.763.743 47.496h4c2.457-2.6 2.457-2.6 3-6h2c2.172-2.962 3.836-5.507 5-9h2l2-6h2l2-5h2c1.488-1.883 1.488-1.883 2.938-4.25 1.52-2.381 3.017-4.692 4.753-6.922 1.503-1.724 1.503-1.724 1.309-3.828h2c2.602-3.497 4.55-6.892 6-11h2c.978-1.383 1.946-2.774 2.848-4.207 1.227-1.91 2.552-3.719 3.902-5.543 2.44-2.865 2.44-2.865 2.25-5.25h2l2-5h2c2.22-2.807 3.83-5 4.438-8.562-.56-3.117-1.514-4.919-3.438-7.438-2.616-.768-2.616-.768-5.649-.675l-3.508-.07-3.788.003-3.881-.053a766 766 0 0 0-8.126-.064c-3.478-.01-6.956-.046-10.435-.091-5.74-.074-11.482-.131-17.223-.151l-3.088-.015c-2.266-.144-2.266-.144-3.302 1.116m407 0c-2.582 5.317-2.582 5.317-4 11 .877 2.173.877 2.173 2.352 4.3l1.582 2.464 1.691 2.548 1.621 2.514c2.44 3.762 4.939 7.465 7.57 11.096 1.908 2.689 3.148 4.97 4.184 8.078h2l.625 2.438c1.532 3.969 3.592 7.053 6.035 10.511C975 1021 975 1021 976 1024h2l2 6h2l.813 2.25c1.13 2.616 2.396 4.552 4.187 6.75 3.353-.748 3.353-.748 4.938-4.375 5.684-12.226 9.07-25.39 12.843-38.296 1.239-4.202 2.54-8.28 4.219-12.329a302 302 0 0 0 2.063-6.312l1.035-3.239a54 54 0 0 0 1.458-7.665L1014 963q-12.074-.034-24.148-.052-5.605-.007-11.212-.023-5.408-.016-10.815-.02-2.065-.003-4.131-.01c-1.925-.008-3.85-.008-5.776-.009l-3.324-.006c-2.58-.056-2.58-.056-4.594 1.12m83-1q-.972 2.355-1.934 4.715l-1.087 2.652c-1.158 3.114-1.84 6.197-2.495 9.446-.643 2.903-1.59 5.653-2.562 8.46-1.453 4.298-2.778 8.635-4.12 12.967A598 598 0 0 1 1017 1013c-.844 2.663-1.672 5.332-2.5 8l-1.281 4.125-.617 1.984a252 252 0 0 1-1.758 5.266c-.946 2.483-.946 2.483-.844 4.625 4.428-1.384 7.627-3.842 11.23-6.66 1.77-1.34 1.77-1.34 3.77-2.34v-2l1.813-.875c2.38-1.172 2.38-1.172 5.187-3.125v-2l1.625-.75c5.871-3.09 11.137-7.224 16.438-11.187l2.103-1.553c3.93-2.937 7.371-6.024 10.834-9.51 2.875-2.154 5.814-4.189 8.77-6.23L1074 989v-2l1.725-.807c4.22-2.213 7.943-5.188 11.775-8.005l2.59-1.87c4.227-3.103 7.907-5.938 10.91-10.318-1.108-1.61-1.108-1.61-3-3-2.928-.437-2.928-.437-6.307-.34h-3.943l-4.262.047q-2.18.009-4.359.013c-3.822.011-7.644.04-11.467.074-3.9.03-7.802.044-11.703.06q-11.48.05-22.959.146m-505.542.092-2.85.06-3.085.067-3.152.067-16.762.359L485 964c-2.57 4.8-2.57 4.8-4 10l1 2h2l.781 2.105c1.358 3.225 2.972 6.177 4.719 9.207.608 1.07 1.217 2.138 1.844 3.239L493 993h2l2 6h2l.625 2.438c1.538 3.985 3.607 7.117 6.035 10.609C507 1014 507 1014 508 1016h2l.563 2.375c1.712 4.317 4.13 7.636 6.878 11.355C519 1032 519 1032 520 1035h2l.754 2.105c1.43 3.323 3.2 6.183 5.183 9.207l2.09 3.239L532 1052h3c.137-29.684-.18-59.327-1-89-2.182 0-4.36.045-6.542.092M1104 975l-1.68 1.277-2.195 1.66-2.18 1.653C1096 981 1096 981 1094 982v2l-1.757.828c-3.785 1.977-7.082 4.617-10.493 7.172l-2.258 1.656-2.133 1.594-1.954 1.453L1074 998v2l-1.645.738c-2.911 1.56-5.412 3.451-8.043 5.45l-1.618 1.225a862 862 0 0 0-11.069 8.567 452 452 0 0 1-6.562 4.946l-2.148 1.594q-2.118 1.57-4.244 3.13c-3.88 2.879-7.267 5.907-10.671 9.35a160 160 0 0 1-5.437 4l-2.895 2.117c-2.668 1.883-2.668 1.883-4.68 3.016-1.941 1.074-1.941 1.074-3.988 3.867-.56 3.57-.75 7.012-.797 10.625-.378 6.283-2.656 9.169-7.203 13.375l-2 2c-1.49.3-2.993.545-4.5.75-2.407.402-2.407.402-4.5 1.25-1.692 2.983-1.692 2.983-2 6h-2l-.805 1.828-1.07 2.422-1.055 2.39a74 74 0 0 1-2.203 4.47c-1.075 1.998-1.075 1.998-.867 4.89h-2c-2.056 3.926-3.69 7.766-5 12h-2a3985 3985 0 0 0-4.437 7.813l-1.276 2.236-1.22 2.158-1.127 1.984c-1.075 1.954-1.075 1.954-1.94 4.809h-2c-.725 1.43-1.43 2.869-2.125 4.313l-1.195 2.425L957 1138c1.606 3.17 1.606 3.17 4.06 3.428l2.57.071 2.914.097 3.16.049 3.243.059q3.405.048 6.81.072c3.467.036 6.929.142 10.395.25q3.308.035 6.614.056l3.135.128c3.014-.028 5.273-.149 8.099-1.21 2.088-2.423 3.417-4.75 4.771-7.643 1.229-2.357 1.229-2.357 4.417-4.482 4.997-1.147 9.71-1.124 14.812-.875 3.237-5.202 3.237-5.202 5-11h2l1.066-2.133 1.496-2.992 1.637-3.281q1.864-3.726 3.758-7.438l.969-1.91q1.373-2.706 2.754-5.41c1.46-2.617 1.46-2.617 1.32-4.836h2c1.257-2.906 2-4.796 2-8h2c2.29-4.812 2.29-4.812 3-10l-2.5-2.875c-3.84-5.13-3.343-11.015-2.5-17.125 2.246-4.924 5.153-7.62 10-10a81 81 0 0 1 8.61-.531c2.524-.212 2.524-.212 3.718-2.313.82-2.257.82-2.257.672-5.156h2l.953-2.527c2.504-6.584 5.117-13.068 8.047-19.473q1.002-2.25 2-4.5l4.996-11.238q1.024-2.307 2.04-4.617l1.026-2.332.985-2.239c.85-1.85 1.802-3.654 2.765-5.449 1.557-2.65 1.557-2.65.188-5.625m10 2a1193 1193 0 0 0-3 6.313l-1.687 3.55c-1.506 3.032-1.506 3.032-1.313 6.137h-2l-2 9h-2l-.805 2.012c-3.195 7.988-3.195 7.988-4.328 10.633-1.04 2.406-1.04 2.406-.867 5.355h-2a1312 1312 0 0 0-2.5 6.313l-1.406 3.55c-1.259 3.055-1.259 3.055-1.094 6.137h-2l-1.125 3.813-.633 2.144c-.503 2.354-.503 2.354 1.758 5.043h2l.148 2.117.227 2.758c.07.905.14 1.81.21 2.742.21 2.562.21 2.562 2.415 4.383a98 98 0 0 0 6.23 1.586l3.854.877 4.103.912q4.113.929 8.223 1.867l2.023.46c6.047 1.385 12.005 2.999 17.95 4.767 2.705.549 4.104.648 6.617-.469 2.305-2.8 2.305-2.8 1.813-5.875-.832-3.2-2.025-5.369-3.813-8.125l-1-3h-2l-2-9h-2l-.332-2.125c-1-5.988-2.434-11.242-4.668-16.875-.38-1.657-.738-3.32-1-5h-2l-.148-1.977-.227-2.648c-.07-.859-.14-1.717-.21-2.602-.336-2.822-.336-2.822-1.388-5.59-1.235-3.827-1.672-7.51-2.09-11.495-.109-4.727-.109-4.727-1.937-8.688a104 104 0 0 1-1.062-4.562l-.536-2.504L1116 977zm-642 1c-1.06 12.392-1.147 24.722-1.133 37.152q0 3.222-.003 6.442-.002 6.746.006 13.492.006 8.453-.004 16.904c-.024 27.352.271 54.671 1.134 82.01l4 1q3.511-3.99 7-8l1.578-1.797c2.611-2.712 2.611-2.712 3.422-6.203l1.75-.687c2.847-1.661 4.37-3.628 6.25-6.313v-2l3-1c3.64-3.48 3.64-3.48 5-8h2c1.503-1.447 1.503-1.447 3.063-3.375 3.596-4.248 7.335-8.343 11.117-12.426 2.006-2.154 2.006-2.154 2.82-5.199l-1-3c-.146-2.122-.22-4.249-.25-6.375l-.078-3.398c.362-3.559 1.439-5.254 3.328-8.227v-4h-2l-.625-2.437c-1.816-4.706-4.51-8.433-7.375-12.563a1441 1441 0 0 1-5.187-7.687l-1.297-1.908c-2.477-3.686-4.617-7.377-6.516-11.405h-2l-.754-2.129c-1.405-3.238-3.178-5.906-5.183-8.808-2.7-3.91-5.022-7.77-7.063-12.063h-2l-.812-2.187c-1.18-2.793-2.59-5.243-4.188-7.813l-1-2h-2l-.812-2.437L475 979zm139 0-2 5h-2c-1.488 1.883-1.488 1.883-2.937 4.25-1.522 2.381-3.018 4.692-4.754 6.922-1.503 1.724-1.503 1.724-1.309 3.828h-2c-2.602 3.497-4.55 6.892-6 11h-2c-2.172 2.962-3.836 5.507-5 9h-2l-2 6h-2l-2 5h-2c-1.593 1.946-1.593 1.946-3.125 4.375l-1.633 2.46c-1.408 2.038-1.408 2.038-1.242 4.165h-2l-1 4h-2l-.812 1.813C560 1048 560 1048 558.438 1049.5c-1.701 1.775-2.026 3.11-2.438 5.5h-2c-.787 2.258-.787 2.258-1 5l1.469 2.219c1.96 3.56 1.832 6.057 1.718 10.093l-.082 3.801L556 1079h-2c-.403 3.523-.134 4.8 1.875 7.813L558 1089h2l.625 2c2.672 5.83 7.05 10.603 11.063 15.563 3.982 4.94 7.732 10.035 11.455 15.172 1.993 2.744 4 5.443 6.123 8.09C591 1132 591 1132 592 1134h2l.813 2.813c1.122 3.011 1.845 4.15 4.187 6.187l1 2h2l1 4h2l.75 1.625c1.547 2.94 3.38 5.633 5.25 8.375l5-1c.813-8.949 1.144-17.808 1.13-26.791l.005-3.978q.005-5.348 0-10.695c-.003-3.773 0-7.547 0-11.32q.004-9.522-.005-19.046-.007-10.89.002-21.783.007-9.442.003-18.886-.003-5.598.001-11.196c.015-18.791-.315-37.53-1.136-56.305zm323 0-.402 3.246-.535 4.192-.264 2.142c-.686 5.307-.686 5.307-1.799 6.42-.401 2.075-.746 4.16-1.062 6.25l-.536 3.453A54.4 54.4 0 0 0 929 1012h-2l-.55 2.527c-2.63 11.775-5.974 23.93-11.602 34.672-1.06 1.922-1.06 1.922-.848 4.801h-2c-1.257 2.906-2 4.796-2 8h-2a403 403 0 0 0-3.062 5.688l-1.723 3.199c-1.305 3.343-1.457 4.784-.215 8.113 2.668 1.334 3.659.726 6.504-.082l2.886-.812 3.173-.918 3.295-.937a1206 1206 0 0 0 19.79-5.876l2.212-.674q5.4-1.649 10.793-3.323c6.459-1.995 12.822-3.859 19.511-4.91 2.07-.361 2.07-.361 3.836-2.468.569-2.03.569-2.03.938-4.312.603-3.073 1.07-4.701 2.812-7.376 1.625-2.387 1.625-2.387.438-5.624L978 1039h-2l-2-6h-2l-.754-2.625c-1.322-3.582-3-6.252-5.183-9.375-2.71-3.889-5.03-7.716-7.063-12h-2l-2-6h-2l-2-7h-2l-.812-2.125c-1.256-3.04-2.69-5.948-4.188-8.875h-2l-.937-2.937c-.758-2.904-.758-2.904-2.063-4.063a100 100 0 0 0-5 0m155 88v2h-2c-2.443 2.954-2.443 2.954-1.5 6.938 1.257 5.011 3.515 9.351 5.902 13.91 2.497 4.926 4.545 10.028 6.598 15.152h2l2 9h2l.262 1.98c.991 4.056 2.735 7.586 4.55 11.332l1.042 2.186c2.324 4.863 4.725 9.686 7.146 14.502h9c1.257-2.906 2-4.796 2-8h2l.48-1.8c1.59-5.646 3.626-10.825 6.122-16.126 2.696-5.928 5.013-12.016 7.398-18.074q.998-2.5 2-5l-1.242-1.215-1.633-1.723-1.617-1.652c-2.219-3.546-2.776-7.33-3.508-11.41-16.176-4.858-32.44-8.7-49-12m-151.28 11.99c-8.338 2.62-16.715 4.95-25.185 7.1A98 98 0 0 0 906 1087v7h-2c-.954 2.706-.954 2.706-1 6 2.999 4.547 6.967 7.822 11.086 11.348 4.324 3.732 8.002 7.867 11.582 12.297L927 1125h2l2 4c4.516.043 8.956-.204 12.486-3.306 3.965-4.366 8.66-9.718 9.514-15.694h2q2.409-4.312 4.813-8.625l1.369-2.45c4.637-7.117 4.637-7.117 6.818-14.925h2q1.224-2.623 2.438-5.25l1.37-2.953c.976-2.29 1.69-4.37 2.192-6.797-12.898 0-26.121 5.16-38.28 8.99M1068 1076c-.685 1.888-.685 1.888-1.125 4.063l-.508 2.222L1066 1084h-2c-2.459 5.263-4.562 10.367-6 16h-2a669 669 0 0 0-2.5 4.813l-1.406 2.707c-1.296 2.486-1.296 2.486-1.094 5.48h-2c-1.46 2.647-2 3.894-2 7h-2l-2 7h-2c-1.142 4.406-1.142 4.406.375 8.563L1043 1138a93 93 0 0 1 1 5 731 731 0 0 0 40.5 7.813l2.014.335c6.882 1.14 13.503 2.16 20.486 1.852l.875-2.937C1109 1147 1109 1147 1111 1146h-2l-.125-2.375c-1.035-4.288-2.94-7.22-5.266-10.93-2.074-3.473-3.695-7.065-5.32-10.765-1.421-3.23-2.916-6.422-4.414-9.618-2.182-4.711-4.147-9.417-5.875-14.312h-2l-.312-2.687c-.707-3.406-1.85-5.404-3.688-8.313-.687-2.312-.687-2.312-1-4h-2l-.437-2.875c-.392-3.018-.392-3.018-1.563-5.125-4.65-.27-4.65-.27-9 1m-541.125 12.875A268 268 0 0 0 524 1092l-2.324 2.488c-4.599 4.177-4.599 4.177-6.676 9.512l-1.75.688c-2.847 1.66-4.37 3.627-6.25 6.312v2l-3 1c-3.64 3.48-3.64 3.48-5 8l-3 1c-1.854 1.754-1.854 1.754-3.625 3.875l-1.852 2.117c-1.709 2.03-1.709 2.03-2.523 5.008h-2c-3.12 3.304-4 4.324-4 9h2l1 8a34162 34162 0 0 0 19.638 3.286c9.778 1.638 19.559 3.235 29.362 4.714.918-8.315 1.174-16.549 1.203-24.91l.017-3.907q.015-4.056.02-8.11c.006-3.467.03-6.934.058-10.4.023-3.32.025-6.639.03-9.958l.038-3.775-.01-3.471.011-3.063c-.12-.794-.242-1.588-.367-2.406-3.56-2.373-4.824-3.037-8.125-.125M543 1088v72c4.43 1.266 8.179 2.292 12.633 2.93l3.163.466 3.329.479c9.454 1.398 18.84 2.976 28.2 4.906 4.262.857 8.306 1.655 12.675 1.219 2.062-2.214 2.062-2.214 3-5-1.016-3.049-1.774-3.867-4-6l-1-2h-2l-2-5h-2l-2-5h-2l-1-4h-2l-.75-2.125c-1.422-3.27-3.122-6.016-5.25-8.875h-2l-2-5h-2l-2-5h-2l-.625-2c-1.598-3.487-3.681-6.22-6.035-9.23C564 1109 564 1109 563 1107h-2l-2-5h-2l-.793-2.2c-1.237-2.869-2.65-5.114-4.52-7.612l-1.738-2.395c-2.12-2.357-2.12-2.357-6.949-1.793m615.125 6.938c-2.168.159-2.168.159-4.125 1.062-2.646 3.677-4 7.482-4 12h-2l-2 9h-2l-2 10h-2l-.55 1.688-.763 2.312-.816 2.48c-.8 2.316-1.695 4.566-2.621 6.832-1.238 3.654-1.396 4.3-.25 7.688l1 2h2l2 5c23.403-2.224 46.726-4.664 70-8l1-7-2.012-1.39c-7.407-5.148-13.964-10.356-20.176-16.922-1.643-1.915-1.643-1.915-3.812-1.688l-.793-1.754c-1.28-2.382-2.72-4.17-4.52-6.184l-1.878-2.105a166 166 0 0 0-4.559-4.707c-2.25-2.25-2.25-2.25-3.937-4.562L1168 1099h-2l-2-4c-1.958 0-3.917-.03-5.875-.062M888 1108l-.402 3.902-.535 5.035-.264 2.577-.264 2.45-.238 2.27C886 1126 886 1126 885 1127a124 124 0 0 0-.719 5.531l-.386 3.395-.395 3.574q-.385 3.485-.781 6.969l-.346 3.138C882 1152 882 1152 881 1153a126 126 0 0 0-.719 5.652l-.386 3.545-.395 3.74-.395 3.635A2082 2082 0 0 0 877 1190c3.847-.542 6.066-1.484 9.063-3.937l2.328-1.891L891 1182q1.554-1.274 3.11-2.547c6.735-5.414 6.735-5.414 12.89-11.453v-2l1.781-.797c5.509-2.987 10.458-8.68 13.219-14.203.688-3.318 1.186-6.615 1.605-9.977.395-3.023.395-3.023 1.06-5.25.603-2.061.603-2.061-1.477-4.523L921 1129h-2l-.687-1.687c-1.67-2.94-3.892-5.003-6.313-7.313-8.78-8.605-8.78-8.605-11.875-12.562L898 1105c-3.867 0-6.509 1.42-10 3m-14 2a151 151 0 0 0-2.937 3.438c-2.76 3.318-5.71 5.85-9.063 8.562l-2.387 2.395c-9.138 9.11-19.992 16.354-30.613 23.605l-3.102 2.156c-10.06 6.616-21.233 10.98-32.269 15.694A136 136 0 0 0 785 1170v3l1.63.563q3.78 1.31 7.558 2.624l2.56.885c8.364 2.913 16.611 6.109 24.856 9.34a2298 2298 0 0 0 9.272 3.61q1.887.733 3.769 1.478c11.914 5.26 11.914 5.26 24.351 4.32l2.442-1.695 2.496-1.68L866 1191l2-1c.656-3.007.656-3.007 1.063-6.5.842-6.405.842-6.405 1.937-7.5.287-1.91.515-3.83.719-5.75l.386-3.531.395-3.719q.385-3.626.781-7.25l.346-3.266C874 1150 874 1150 875 1149c.287-1.91.515-3.83.719-5.75l.386-3.531.395-3.719q.385-3.626.781-7.25l.346-3.266C878 1123 878 1123 879 1122a226 226 0 0 0 .563-8.062l.13-2.3q.159-2.818.307-5.638c-2.283 0-4.434 2.643-6 4m601.375 26.875-2.477 1.617L1471 1140v2l-2.062.688c-3.07 1.371-5.445 3.048-8.137 5.03-2.167 1.542-4.439 2.854-6.766 4.137a148 148 0 0 0-4.476 2.633A279 279 0 0 1 1440 1160l-1.87 1.036c-10.841 5.865-22.125 9.781-33.88 13.339l-2.099.64c-9.629 2.91-19.253 5.182-29.151 6.985 2.922 1.607 5.532 2.438 8.805 3.043l2.911.555 3.159.59c9.87 1.901 19.658 4.05 29.438 6.374 10.796 2.56 21.6 4.93 32.497 7.016 3.65.703 7.295 1.44 10.94 2.172l6.25 1.25 1.68-2.395c2.554-2.868 3.847-3.278 7.445-4.293 2.777-1.06 2.777-1.06 4.875-3.312 1.481-4.538 1.602-9.306 1.816-14.043C1483 1175 1483 1175 1484 1173c.224-2.093.393-4.193.535-6.293l.264-3.85.13-2.013q.2-3.01.409-6.018c.663-8.906.663-8.906.662-17.826-1.748-2.021-1.748-2.021-4-3-2.848 0-4.27 1.312-6.625 2.875M1496 1137c-2.675 3.75-2.53 8.23-2.816 12.668l-.186 2.532q-.29 3.993-.56 7.987-.28 4.012-.571 8.02-.18 2.495-.348 4.989c-.407 5.692-.407 5.692-1.519 6.804-.482 4.713-.601 9.297 0 14 2.701 2.747 2.701 2.747 6 4 1.375 2.25 1.375 2.25 2 4h2l2 7q11.631 1.905 23.267 3.79 3.951.642 7.902 1.29 5.703.931 11.41 1.854l3.523.58A240 240 0 0 0 1570 1219c2.215-2.664 2.215-2.664 1.875-4.898-1.16-2.789-2.81-4.525-4.875-6.727l-2.45-2.645-2.55-2.73a1461 1461 0 0 1-4.812-5.312l-2.145-2.364a97 97 0 0 1-4.18-5.117L1549 1187h-2l-.75-1.687c-1.48-2.737-3.185-4.99-5.25-7.313h-2l-.625-2.187c-1.485-3.039-3.221-4.513-5.863-6.567-2.202-1.815-3.795-3.976-5.512-6.246-2.537-3.132-5.087-6.208-8-9-2.415-2.354-4.698-4.586-6.687-7.312L1511 1145h-2l-.687-2.25c-1.572-3.293-3.313-4.725-6.313-6.75-2.267 0-3.87.201-6 1m-540.581 15.923L954 1156l-2.25 1.813c-2.394 2.992-2.187 5.17-2.012 8.914.373 3.235 1.293 6.163 2.262 9.273q.712 3.15 1.375 6.313a1567 1567 0 0 0 3.75 17.312l.517 2.333c.747 3.358 1.513 6.707 2.358 10.042l7 2c4.41-4.213 8.44-8.34 11.844-13.41 1.156-1.59 1.156-1.59 3.843-4.215 2.343-2.406 3.316-4.203 4.313-7.375h2c1.588-1.715 1.588-1.715 3.125-3.875l1.633-2.18c1.421-1.841 1.421-1.841 1.242-3.945h2c1.353-1.679 1.353-1.679 2.688-3.875 2.861-4.458 5.888-8.766 8.992-13.059 1.5-1.938 1.5-1.938 1.32-4.066h2v-2h-2l-1-6c-7.19-.152-14.379-.257-21.57-.33q-3.67-.044-7.339-.123a802 802 0 0 0-10.544-.133c-1.095-.03-2.19-.062-3.318-.094-6.207-.178-6.207-.178-10.81 3.603M1044 1151l-2.062 3.375-1.16 1.898L1040 1158l1 2h2l.734 2.14c1.456 3.29 3.309 5.772 5.516 8.61 3.349 4.366 6.506 8.77 9.46 13.41 1.284 1.831 2.702 3.274 4.29 4.84l1 2h2l2 5h2l.684 1.648c1.728 3.088 3.962 5.397 6.379 7.977 4.84 5.18 4.84 5.18 5.937 7.375h2l.813 2.375c1.035 2.906 1.035 2.906 4.187 4.625 2.754.025 2.754.025 5.688-.375l3.011-.336L1101 1219l.734-2.605c1.702-6.003 3.429-11.994 5.266-17.957l.977-3.192a282 282 0 0 1 2.234-6.773l1.164-3.473 1.086-3.125c.634-3.383.148-4.878-1.461-7.875-1.458-1.625-1.458-1.625-3-3-2.19-3.285-2.998-6.207-4-10l-1.879-.272c-15.37-2.246-30.631-4.863-45.883-7.797l-2.024-.388q-2.732-.526-5.462-1.056c-2.614-.545-2.614-.545-4.752-.487m150.207 5.023-2.487.32q-2.613.338-5.224.68c-4.493.59-8.989 1.164-13.484 1.735l-2.652.337a522 522 0 0 1-22.747 2.36c-3.935.26-3.935.26-7.613 1.545-.745 2.98-1.227 5.008-1 8 1.998 2.833 1.998 2.833 5 5 6 5 6 5 8.688 7.75 2.18 2.447 2.18 2.447 5.312 3.25l1 3h2l2 4h2l.625 1.688c1.53 2.574 3.387 4.143 5.742 5.968 1.633 1.344 1.633 1.344 3.305 3.504 3.421 2.704 6.583 2.25 10.703 1.777l2.318-.26c3.994-.657 5.855-1.217 8.756-4.17 2.132-3.89 3.551-7.04 3.551-11.507h2l2-7h2c.22-.51.438-1.02.664-1.547l.961-2.203 1.066-2.48c1.309-2.77 1.309-2.77 3.086-5.758 3.398-5.43 3.398-5.43 3.774-11.555-1.359-2.55-2.094-3.893-4.551-5.457-5.7-.234-11.15.265-16.793 1.023M483 1159l-1 2.188c-2.12 2.98-2.894 3.283-6.062 4.7-2.759 1.693-3.762 2.515-4.687 5.656-.287 3.374-.317 6.671-.267 10.058l-.038 3.88c-.033 3.507-.017 7.012.008 10.52.018 3.68-.008 7.359-.03 11.038q-.042 9.279-.01 18.557a3678 3678 0 0 1-.029 26.076 6004 6004 0 0 0-.034 36.949v3.625c.027 6.97.385 13.823 1.149 20.753 2.392.63 2.392.63 5 1 2.325-1.31 2.325-1.31 4.313-3.312.697-.636 1.394-1.272 2.113-1.926 1.796-1.617 1.796-1.617 1.574-3.762l3-1a381 381 0 0 0 5-6l3-2v-2l3-1a200 200 0 0 0 3.617-4.395c1.383-1.605 1.383-1.605 4.32-4.043 2.946-2.464 5.197-4.983 7.606-7.945C516 1275 516 1275 518.875 1273.063c2.295-1.812 2.295-1.812 2.434-4.083.003-1.996-.143-3.99-.309-5.98h-2v-10h2l.75-3.875c.422-2.18.422-2.18 1.25-4.125 1.99-1.133 3.947-1.981 6.11-2.736 2.59-1.126 4.055-2.093 5.89-4.264 1.196-5.222 1.004-10.41.887-15.73q-.012-2.337-.013-4.673c-.01-3.258-.048-6.514-.106-9.772-.073-4.18-.099-8.358-.107-12.54-.009-3.212-.034-6.425-.065-9.637a1142 1142 0 0 1-.034-4.626c-.016-2.15-.052-4.299-.094-6.449l-.053-3.709L535 1168c-3.22-2.146-5.161-2.563-8.934-3.219l-3.63-.634-3.874-.647-3.93-.669c-10.507-1.758-21.014-3.003-31.632-3.831m759 2c-1.467 3.815-.433 6.29 1 10h2l.262 1.984c.988 4.039 2.735 7.54 4.55 11.266q1.09 2.27 2.176 4.543l1.054 2.193c1.73 3.637 3.347 7.322 4.958 11.014h2l2 9h2l.293 2.57c.925 4.49 2.862 8.129 5.004 12.155 1.38 2.614 2.648 5.098 3.527 7.927.772 2.466 1.193 3.67 3.176 5.348 5.047 1.285 9.811 1.81 15 1 2.54-2.251 2.54-2.251 4-5v-2l3-1c1.682-1.622 1.682-1.622 3.313-3.625l1.847-2.176L1305 1224a1761 1761 0 0 1 3.25-3.812l1.39-1.645c1.36-1.543 1.36-1.543 3.032-3.117 1.555-1.345 1.555-1.345 1.328-3.426l3-1c1.294-1.488 2.584-2.98 3.813-4.523 1.295-1.612 2.726-3.016 4.187-4.477l2.5-3c2.5-3 2.5-3 4.176-4.395 1.553-1.55 1.553-1.55 1.398-3.867l-.387-2.426-.363-2.449L1332 1184l-2.07-.196c-15.052-1.469-29.402-3.602-43.93-7.804l-2.8-.782c-11.277-3.157-22.117-6.691-32.706-11.729-4.062-1.961-4.062-1.961-8.494-2.489m-308 2-1 3-3 1c-2.708 2.375-2.708 2.375-5 5v2l-3 1-1.687 2.125c-3.05 3.79-6.621 6.728-10.313 9.875l-3.625 3.25c-2.577 2.287-5.228 4.408-7.992 6.46l-1.935 1.457q-1.923 1.44-3.876 2.838c-3.654 2.672-3.654 2.672-4.978 6.83L888 1210c13.69 4.883 28.393 8.048 42.719 10.445 3.281.555 3.281.555 5.937 1.235 3.724.829 5.518.773 8.918-1.09 4.691-3.61 4.691-3.61 6.836-8.918-.322-3.325-1.238-6.187-2.355-9.328-1.373-4.352-2.243-8.744-3.117-13.219l-.526-2.605c-.782-3.95-1.486-7.869-1.935-11.872-.394-3.016-.895-5.362-2.04-8.148L941 1163zm289 3q-1.256 2.434-2.5 4.875l-1.406 2.742c-1.233 2.249-1.233 2.249-1.094 4.383h-2c-1.257 2.906-2 4.796-2 8h-2a669 669 0 0 0-2.5 4.813l-1.406 2.707c-1.296 2.486-1.296 2.486-1.094 5.48h-2a157 157 0 0 0-2.125 3.75l-1.195 2.11c-.921 2.125-.921 2.125.078 4.1L1203 1211a260 260 0 0 1 2 4.875l1 2.492c1 2.633 1 2.633 1.547 5.735 1.665 3.322 2.204 3.528 5.531 4.804q2.576.83 5.172 1.594 2.756.882 5.508 1.777l2.727.875c3.319 1.119 6.447 2.472 9.64 3.91 5.386 2.367 10.82 4.451 16.375 6.376.754.27 1.509.542 2.286.822 4.46 1.504 7.526 1.994 12.214.74.8-3.287 1.097-4.71 0-8h-2l-2-9h-2l-.293-2.043c-.876-3.663-2.392-6.896-4.02-10.27l-.953-2.012a402 402 0 0 0-5.109-10.362c-1.268-2.586-2.014-4.563-2.625-7.313h-2l-2-8h-2l-5-15h-2l-2-7zm-680 3q-.035 11.918-.052 23.837-.007 5.535-.023 11.07-.016 5.35-.02 10.699-.005 3.017-.018 6.035c0 6.217.135 12.215 1.113 18.359 2.601 1.134 2.601 1.134 6 1 2.979-2.01 5.434-4.498 8-7l2.563-1.937c2.926-2.477 5.266-5.276 7.75-8.188 2.026-2.252 4.324-3.984 6.687-5.875 1.818-1.982 3.567-4.016 5.316-6.059 2.115-2.439 4.373-4.687 6.684-6.941l1.875-1.906c3.024-3.07 6.012-6.082 9.375-8.782 2.679-2.252 4.74-4.452 6.75-7.312v-2h-2l-1-6c-22.57-4.26-22.57-4.26-45.25-7.875l-2.516-.363c-3.779-.518-7.425-.809-11.234-.762m583.375 9-3.04.563-2.335.437-.55 2.09A265 265 0 0 1 1115 1199a874 874 0 0 0-3 9l-.89 2.648-.86 2.665-.797 2.425c-.509 2.54-.381 3.858.547 6.262 1.127 1.658 1.127 1.658 2.5 3.125 2.5 2.875 2.5 2.875 3.5 4.875 11.617-1.172 23.119-2.7 34.629-4.66 2.425-.412 4.85-.815 7.277-1.217l4.657-.783 2.183-.363c3.74-.62 3.74-.62 7.254-1.977.511-3.133.656-5.88 0-9-2.308-2.835-5.074-4.837-8-7l-2.375-2.437c-1.49-1.794-1.49-1.794-3.625-1.563l-1-3c-1.728-1.713-1.728-1.713-3.812-3.375-3.15-2.662-5.641-5.376-8.188-8.625-3.073-3.033-3.073-3.033-7-4v-2c-4.2-3.64-6.339-2.984-11.625-2m-382.12-.66q-2.568.457-5.134.93c-11.798 1.838-23.48 2.118-35.398 2.242l-2.884.03c-5.916.059-11.832.096-17.748.128-5.096.03-10.192.076-15.288.121q-14.901.126-29.803.209c-1.2 3.337-1.2 3.337-2 7 1.629 2.468 2.909 4.028 5 6l2.688 2.875c2.034 2.35 2.034 2.35 4.312 2.125l.688 1.688c1.306 2.301 2.788 3.875 4.687 5.695 5.233 5.208 10.031 10.845 14.625 16.617l1.438 1.438c1.888 1.888 3.536 3.949 5.23 6.011 1.269 1.477 2.643 2.862 4.02 4.238C681 1237 681 1237 683 1240c6.113 1.64 13.872 1.449 20 0 5.197-3.006 8.151-8.454 10-14l3-1c1.337-1.53 1.337-1.53 2.5-3.375A38.6 38.6 0 0 1 724 1215c2.998-3.092 2.998-3.092 4-7l3-1a128 128 0 0 0 4-5 446 446 0 0 1 3.25-3.687 393 393 0 0 0 8.125-9.563l2.023-2.453c1.556-2.23 2.479-3.58 2.602-6.297-2.348-3.053-2.638-3.033-6.744-2.66M782 1181v2l-1.812.875c-2.381 1.172-2.381 1.172-5.188 3.125v2h2l.113 2.02c.435 6.097 1.47 11.617 3.196 17.476.865 3.135 1.25 6.285 1.691 9.504l.938 2.813c1.212 3.638 1.811 7.232 2.402 11.015.52 2.537.52 2.537 3.66 4.172 6.401.725 11.552-1.277 17.438-3.5l2.945-1.096c14.274-5.425 27.404-12.813 40.617-20.404v-6c-19.697-7.92-19.697-7.92-39.742-14.883-4.808-1.649-9.408-3.696-14.04-5.785-4.809-1.99-8.993-3.332-14.218-3.332m-26.562 7.813c-1.621 2.03-1.621 2.03-1.438 4.187l-3 1c-.733 2.015-.733 2.015-1 4h-2c-2.01 2.14-2.01 2.14-4.062 4.813l-2.16 2.707c-1.924 2.426-1.924 2.426-2.778 5.48h-2c-1.481 1.687-1.481 1.687-2.937 3.813-1.874 2.63-3.745 4.942-6.063 7.187-3.594 3.509-3.594 3.509-5 8h-2c-1.22 1.426-1.22 1.426-2.375 3.25-1.979 2.906-4.137 5.262-6.625 7.75v2h-2v6c12.521.503 24.712-.203 37.125-1.812l3.948-.501c14.35-1.303 14.35-1.303 25.927-8.687.518-2.31.518-2.31.313-4.75l-.106-2.633A156 156 0 0 0 776 1220h-2l-.043-1.992c-.492-9.804-2.52-21.133-6.957-30.008-4.307-1.24-7.83-1.828-11.562.813M1366 1190c0 3.52.704 4.439 3 7h2l.813 1.75c1.216 2.306 2.49 4.27 4.187 6.25h2l.688 2.188c1.254 2.688 2.535 4.213 4.675 6.218 2.23 2.172 4.3 4.472 6.387 6.782l2.36 2.605C1394 1225 1394 1225 1395 1227h2l.813 1.813c1.292 2.38 1.975 3.613 4.187 5.187 2.652.114 5.114.089 7.75-.062 8.716-.305 8.716-.305 12.375 2.187 2.696 2.205 2.696 2.205 5.625 1.5 6.89-3.445 13.558-7.206 20.188-11.125 5.881-3.461 11.921-6.528 18.062-9.5-.102-2.947-.102-2.947-1-6-3.94-2.465-9.09-2.903-13.625-3.75a838 838 0 0 1-24.125-5.062l-6.855-1.536-3.596-.805c-6.248-1.393-12.5-2.766-18.753-4.135l-4.159-.912q-6.441-1.414-12.887-2.8l-2.976-.646-2.645-.557-2.228-.474c-2.41-.362-4.718-.377-7.151-.323m-756 2-2.125 2.688a40.3 40.3 0 0 1-6.187 6.062L599 1203v2l-1.937.813c-2.394 1.074-2.394 1.074-3.063 4.187l-3 1a139 139 0 0 0-5 5l-1.879 1.816-1.933 1.871-1.833 1.762c-1.574 1.459-1.574 1.459-1.355 3.551l-1.75.75c-2.58 1.433-4.311 3.034-6.25 5.25v2l-3 1v2l-1.75.688c-2.834 1.653-4.281 3.708-6.25 6.312l-1.75 1.625c-1.586 1.435-1.586 1.435-1.25 4.375 4.618.721 9.127 1.166 13.797 1.316l3.88.128 4.073.119 2.081.062c8.472.251 16.944.487 25.419.563l2.304.039c3.718.006 5.264-.106 8.446-2.227.245-2.714.301-5.19.219-7.898l-.038-2.42A808 808 0 0 0 617 1231l-.105-4.946c-.11-4.894-.25-9.786-.395-14.679l-.145-5.102q-.173-6.136-.355-12.273zm15 2q-.034 10.926-.052 21.853-.007 5.073-.023 10.146c-.013 3.884-.018 7.769-.023 11.653l-.015 3.697v3.397l-.007 3.008c-.132 2.216-.132 2.216 1.12 3.246 1.339.098 2.683.128 4.026.13l2.59.009 2.825-.006 2.898.003q3.048 0 6.096-.006c3.09-.005 6.18 0 9.27.007q2.963 0 5.924-.004l2.782.006c5.287-.02 10.357-.371 15.589-1.139-.257-4.37-.6-6.518-3.437-9.937-2.274-2.272-2.274-2.272-4.563-2.063l-.781-1.734c-1.333-2.477-2.87-4.4-4.719-6.516l-1.844-2.14c-1.51-1.842-1.51-1.842-3.656-1.61l-.812-1.75c-1.217-2.306-2.491-4.27-4.188-6.25h-2l-2-4h-2l-.781-1.734c-1.333-2.477-2.87-4.4-4.719-6.516l-1.844-2.14c-1.51-1.842-1.51-1.842-3.656-1.61l-.687-1.687c-1.689-2.975-3.78-5.033-6.313-7.313-2.21-.105-2.21-.105-5 1m713 4-.75 2.375c-1.404 2.948-2.257 3.527-5.25 4.625v2h-2c-3.636 3.48-3.636 3.48-5 8l-4 2v2h-2c-1.413 1.621-1.413 1.621-2.812 3.688-2.479 3.435-5.19 6.315-8.188 9.312l-1.125 2.25-.875 1.75-3 1a318 318 0 0 0-5 6l-2 1v6h2v2c16.611.212 33.124-.348 49.71-1.227q5.014-.265 10.027-.517 4.888-.249 9.775-.502l3.57-.183c3.307-.176 6.612-.372 9.918-.571l3.424-.17 3.274-.201 2.925-.162c2.716-.272 2.716-.272 4.69-3.28.903-3.759.903-3.759-.313-7.187-1.169-1.493-2.345-2.983-3.598-4.406-1.42-1.615-2.751-3.285-4.09-4.969L1385 1226h-2l-.687-2.187c-1.582-3.39-3.612-5.238-6.313-7.813a381 381 0 0 1-5-6c-3.818-4.664-3.818-4.664-8-9-.385-.53-.77-1.06-1.168-1.605-2.826-2.152-5.067-1.416-8.52-1.02-5.383.519-10.003.58-15.312-.375m163 19c-1.736 1.884-1.736 1.884-3.25 4.313-3.488 4.817-6.13 6.04-11.75 7.687-1.253 2.505-1.292 4.508-1.5 7.305l-.25 3.207-.25 3.363a2272 2272 0 0 1-.5 6.555l-.219 2.945c-.247 2.31-.688 4.386-1.281 6.625-.859 8.323-1.154 16.637-1 25h-2v2l3.125 2.063 1.758 1.16c3.87 1.42 7.18.161 10.87-1.352 12.154-6.203 23.387-13.548 34.567-21.324a368 368 0 0 1 8.805-5.922c2.504-1.652 4.841-3.367 7.125-5.312 2.75-2.313 2.75-2.313 5.313-3.813 2.563-1.446 2.563-1.446 4.734-3.809 3.515-3.5 7.371-6.458 11.277-9.507 2.966-2.64 2.966-2.64 4.426-6.184-.497-2.62-.497-2.62-2-5-2.616-1.076-2.616-1.076-5.816-1.406l-3.71-.558q-2.019-.27-4.036-.536-2.07-.299-4.136-.604-4.371-.64-8.746-1.249a909 909 0 0 1-13.814-2.073c-8.61-1.34-8.61-1.34-17.222-2.656l-3.529-.538c-3.15-.464-3.15-.464-6.991-.38m-620.145 4.629c-2.97 2.194-6.32 3.26-9.78 4.476-2.249.706-2.249.706-3.075 2.895-.04 2.333-.043 4.667 0 7h-2l-.26 1.728q-.584 3.855-1.178 7.71l-.408 2.72-.4 2.588-.365 2.396C863 1255 863 1255 862 1256a70 70 0 0 0-.684 4.008l-.373 2.492-.75 5.18c-.738 4.927-1.748 9.553-3.193 14.32-.502 2.67-.502 2.67 0 5 1.596 2.01 1.596 2.01 4 3 9.605-1.234 18.273-7.868 26.387-12.816a247 247 0 0 1 7.304-4.278c2.638-1.52 5.094-3.07 7.559-4.843a476 476 0 0 1 10.23-7.09c8.064-5.44 15.976-10.86 23.391-17.168C938 1242 938 1242 940.348 1240.82c1.892-1.68 1.892-1.68 1.677-4.008A85 85 0 0 0 941 1230l-3.758-.848-5.367-1.215-2.906-.656a1914 1914 0 0 1-17.969-4.172l-4.082-.964q-3.024-.715-6.047-1.438-2.845-.68-5.691-1.352l-3.321-.792c-5.343-1.052-7.073-.5-11.004 3.066m581.208 5.496-1.77.967q-2.65 1.45-5.293 2.908-2.687 1.47-5.375 2.938l-2.637 1.44c-5.977 3.243-11.984 6.43-17.988 9.622l.254 1.723c.665 5.043.703 9.28-.254 14.277l3.188 2.188c3.28 2.338 5.96 4.96 8.812 7.812 2.527 2.057 5.087 4.068 7.648 6.082 2.352 1.918 2.352 1.918 4.977 4.605 3.146 3.063 6.18 5.838 10.375 7.313 3.042-.337 5.51-1.211 8-3 1.08-3.238 1.285-5.943 1.5-9.348l.25-3.771.5-7.899.25-3.767.219-3.465c.281-2.75.281-2.75 1.281-4.75 1.111-8.3 1.121-16.642 1-25l-3.375-2-1.898-1.125c-3.787-1.919-6.215.355-9.665 2.25M859 1225c-2.123.854-2.123.854-4.488 2.21l-2.8 1.512-3.024 1.653C837.7 1236.25 826.518 1241.274 815 1246q-1.99.83-3.977 1.664-4.005 1.68-8.023 3.336c-.94 4.275-1.128 7.746 0 12 3.283 4.101 7.911 6.932 12.244 9.817 2.255 1.519 4.38 3.177 6.506 4.87l2.121 1.598C826 1281 826 1281 828.348 1283.31c2.497 2.347 4.574 4.172 7.652 5.691 4.334-.215 8.004-1.352 12-3 2.685-9.087 4.923-18.212 6.535-27.55.61-3.214 1.567-6.306 2.465-9.45a384 384 0 0 0 1.535-8.742C859 1238 859 1238 860 1237c.234-1.849.413-3.705.563-5.562l.253-3.067L861 1226zm304.886 4.826-3.154.546-3.4.597-3.485.605q-5.517.96-11.034 1.926l-7.475 1.3q-9.17 1.597-18.338 3.2c-.503 4.781-.503 4.781 1.51 8.893l2.111 1.423 2.338 1.627 2.478 1.62 2.374 1.63c2.38 1.628 4.78 3.22 7.189 4.807q2.325 1.547 4.648 3.098l2.237 1.489a802 802 0 0 1 5.783 3.905c14.49 9.838 29.9 19.263 46.332 25.508 2.622-1.596 2.622-1.596 5-4 .485-3.254.297-5.286-.965-8.32-1.118-2.895-1.593-5.55-2.035-8.618-.456-3.157-.98-6.004-2-9.03-1.398-4.239-1.855-8.499-2.437-12.91-.552-3.06-1.017-5.423-2.563-8.122-2.476-1.284-2.476-1.284-5.375-2-4.635-1.497-7.069-2.666-9.625-7l-2-3c-2.852 0-5.31.337-8.114.826M1199 1238l-2 1c-.167 2.83-.027 4.919.875 7.625 1.279 3.836 1.921 7.609 2.563 11.594.511 2.836.511 2.836 1.554 5.695 1.085 3.322 1.64 6.504 2.133 9.961l.508 3.492.367 2.633h2v6l2.012.586 2.676.789 2.636.773c2.676.852 2.676.852 5.156 2.165 2.61 1.003 2.61 1.003 5.247-.586l2.898-2.102 3.176-2.258L1234 1283l5.813-4.25 2.73-2.008c3.052-2.164 6.187-3.925 9.457-5.742 2.38-1.55 4.733-3.134 7.082-4.73C1261 1265 1261 1265 1263 1264v-8c-7.025-3.919-14.352-6.692-21.897-9.408-4.507-1.626-8.95-3.32-13.353-5.217-14.793-7.269-14.793-7.269-28.75-3.375m139.712 19.796q-4.602.284-9.204.557-4.47.269-8.938.543-2.115.13-4.23.257-2.937.18-5.873.366c-1.108.07-2.216.138-3.357.209-3.077.27-6.072.722-9.11 1.272l-2 7h2l.625 2.188c1.46 2.985 3.077 4.36 5.668 6.37 3.949 3.335 7.135 7.535 10.414 11.512l1.605 1.93 1.426 1.75c1.203 1.485 1.203 1.485 3.262 1.25l.813 1.938c1.074 2.393 1.074 2.393 4.187 3.062a79 79 0 0 1 2 4 92 92 0 0 0 3.5 4.25l1.844 2.14c1.51 1.842 1.51 1.842 3.656 1.61l1 4h2l1 3 1.688-.492c2.504-.55 4.75-.64 7.312-.633l2.563-.008c2.284.125 4.247.494 6.437 1.133l1-4h2c2.602-3.497 4.55-6.892 6-11h2l.813-1.812c1.175-2.166 2.463-3.464 4.187-5.188v-2h2c2.602-3.497 4.55-6.892 6-11h2c.978-1.383 1.946-2.774 2.848-4.207 1.227-1.91 2.552-3.719 3.902-5.543 2.44-2.865 2.44-2.865 2.25-5.25h2c.846-3.306 1.196-5.406.115-8.68-2.414-2.648-2.818-2.687-6.224-2.876-1.807.012-3.613.056-5.418.122l-3.034.058c-14.255.348-28.498 1.277-42.727 2.172m-577.723 2.555-2.36.233-2.531.256-2.647.262q-4.195.415-8.389.835-5.482.547-10.964 1.09l-2.666.268a359 359 0 0 1-18.005 1.333c-2.61.4-3.8.925-5.74 2.685-2.042 2.723-2.042 2.723-1.687 6.687h2l2 9h2l2 9h2l2 9h2l.313 2.688c.73 3.522 1.485 5.48 3.687 8.312 2.837.932 2.837.932 6 1l3.188.25c2.805.005 2.805.005 4.554-1.598L739 1310l2.125-2.437c1.715-2.344 2.457-3.741 2.875-6.563h2l.813-1.812c1.175-2.166 2.463-3.464 4.187-5.188v-2h2c2.602-3.497 4.55-6.892 6-11h2l.75-1.75c1.413-2.544 3.203-4.203 5.25-6.25v-2h2c1.837-4.34 1.837-4.34 1.125-8.875L769 1260c-2.756 0-5.291.08-8.011.351M556 1268v2h-2l-2.187 2.375c-3.724 3.475-6.946 4.719-12.086 4.55-3.302-.334-6.31-.792-9.477-1.8-2.475-.399-2.475-.399-4.562 1.875l-1.247 1.418c-1.649 1.81-3.44 3.322-5.316 4.895-3.4 2.942-6.299 6.084-9.203 9.507-3.76 4.265-7.875 8.191-11.922 12.18l-2.5 2.563c-3.06 2.982-6.396 5.511-9.805 8.082-2.54 2.966-2.54 2.966-.695 10.355h118l4-7c2.498-2.306 4.44-3.792 7.627-4.978 2.52-1.736 2.52-1.736 2.817-4.023.154-2.713.143-5.384.08-8.1l-.015-3.007c-.021-3.173-.078-6.344-.134-9.517q-.024-3.22-.043-6.437c-.034-3.914-.069-7.828-.14-11.741l-.038-2.389c.04-1.829.04-1.829-1.154-2.808a89 89 0 0 0-5.083-.145l-3.288-.02-3.582-.003-3.66-.01a3762 3762 0 0 0-7.686-.007c-3.92-.002-7.84-.02-11.76-.04q-3.727-.005-7.457-.005l-3.558-.022-3.325.01-2.918-.005c-2.887.266-5.059 1.045-7.683 2.247m69-2v47l7 1c2.453-2.373 2.453-2.373 3.758-4.324 1.242-1.676 1.242-1.676 4.18-4.113 2.945-2.465 5.194-5.002 7.628-7.942 1.918-2.169 4.176-3.815 6.434-5.621 1.562-1.724 3.05-3.498 4.543-5.281 4.01-4.73 8.686-8.717 13.371-12.754 1.992-1.877 3.591-3.675 5.086-5.965v-2zm794.832.96c-3.437 1.262-6.494 1.46-10.145 1.665l-3.8.227-2.887.148-2 5h-2l-2 6h-2l-2 5h-2c-1.488 1.883-1.488 1.883-2.937 4.25-1.522 2.381-3.018 4.692-4.754 6.922-1.503 1.724-1.503 1.724-1.309 3.828h-2c-2.602 3.497-4.55 6.892-6 11h-2a125 125 0 0 0-4 6l-2 3c.396 2.789.396 2.789 2 5 23.434-.418 47.863-5.799 70.188-12.562l2.37-.701c2.21-.661 4.411-1.35 6.61-2.053l3.79-1.202c3.51-1.71 4.475-2.96 6.042-6.482 1.169-3.47 1.169-3.47 1-7-2.091-2.624-2.091-2.624-5.125-4.625-3.96-2.91-7.423-5.877-10.875-9.375l-3-2c-3.105-2.07-5.398-4.334-8-7a216 216 0 0 0-3.687-3.312l-1.762-1.551c-2.28-1.671-3.175-1.304-5.719-.176M791.875 1270c-4.575 1.415-9.133 1.172-13.875 1l-1 3h-2c-1.249 1.58-1.249 1.58-2.5 3.688-2.666 4.146-5.537 8.051-8.562 11.937-6.543 7.085-6.543 7.085-9.938 15.375l-3 1c-.733 2.015-.733 2.015-1 4h-2l-.812 1.813C746 1314 746 1314 744.313 1315.437c-1.62 1.56-1.62 1.56-1.125 4.188.558 2.54.558 2.54 2.812 3.375 4.347-.123 8.672-.587 13-1l2.81-.268c15.817-1.697 30.91-5.58 46.19-9.857l2.955-.823q4.183-1.172 8.357-2.372l2.57-.726c4.469-1.23 4.469-1.23 8.118-3.954 1.197-3.084 1.536-5.73 1-9-2.473-3.335-5.66-5.575-9-8l-2.887-2.184a578 578 0 0 0-6.043-4.496c-4.046-3.058-7.87-6.337-11.695-9.668-3.42-2.38-5.64-1.887-9.5-.652m473.091.985-2.318 1.55-2.582 1.705-2.691 1.822A1595.936 1595.936 0 0 0 1247 1283l-4.738 3.16-2.208 1.472L1238 1289l-3.504 2.336L1226 1297l1 9c31.529 9.65 31.529 9.65 63.894 15.611 3.577.448 7.14.97 10.708 1.498q3.917.573 7.835 1.141l3.648.533c6.69.93 13.162 1.46 19.915 1.217l2-5-2.012-2.195c-8.096-8.865-8.096-8.865-10.8-12.18-2.153-2.664-2.153-2.664-4.626-5.062a96 96 0 0 1-5.562-6.063c-2.534-2.99-5.194-5.759-8-8.5-9.627-9.454-9.627-9.454-13-14l-2.5.5c-7.389 1.056-11.888.741-18.5-2.5-2.883-1.349-2.883-1.349-5.034-.015m-582.92 2.296c-1.457 1.771-1.457 1.771-2.718 3.746-1.438 2.137-2.952 3.488-4.953 5.098-2.878 2.37-5.081 4.926-7.375 7.875l-3 2v2l-1.687.625c-3.171 1.885-5 4.529-7.313 7.375l-3 2v2l-1.937.813c-2.394 1.074-2.394 1.074-3.063 4.187l-3 1v2l-1.812.813c-3.031 1.612-3.031 1.612-5.188 4.187.276 2.34.606 4.676 1 7 9.188.139 18.376.246 27.565.31 4.266.032 8.532.075 12.799.143 4.117.065 8.234.1 12.352.116q2.355.017 4.712.065c2.201.044 4.4.05 6.6.047l3.796.04c3.45-.433 3.45-.433 5.498-3.674L713 1320l1.813-1.437c1.588-1.728 1.588-1.728.875-5.25L715 1310h-2l-.328-2.648c-.692-3.45-1.77-5.885-3.422-8.977-7.537-14.566-7.537-14.566-9.25-22.375h-2l-1-3c-7.73-1.698-7.73-1.698-14.953.281"/><path fill="#0c0a06" d="M469 801h2l-.003 1.788q-.033 21.626-.049 43.251-.007 10.46-.023 20.917-.017 10.106-.02 20.21-.003 3.843-.01 7.686c-.1 17.249-.1 17.249.884 34.46.348 4.228.309 8.449.221 12.688l3 1h-4c-1.948-7.807-2.275-15.231-2.227-23.252v-3.906c-.002-3.504.01-7.007.024-10.51.013-3.673.014-7.346.016-11.02.006-6.94.023-13.881.043-20.823.022-7.908.033-15.816.043-23.724q.033-24.382.101-48.765"/><path fill="#0d0c08" d="M1195 789c0 3 0 3-2.02 5.36-1.382 1.36-1.382 1.36-2.793 2.745a959.822 959.822 0 0 1-6.187 6.082l-3.18 3.14A1985 1985 0 0 1 1173 814c0-3 0-3 1-5h2l.813-1.812c1.186-2.186 2.283-3.601 4.187-5.188h2l.785-1.809c1.305-2.354 2.57-3.574 4.652-5.254 2.314-1.883 4.485-3.795 6.563-5.937"/><path fill="#080704" d="m907 1166 2 1a85 85 0 0 1-13 13l-2-1 1.574-1.32c4.258-3.637 7.98-7.266 11.426-11.68"/><path fill="#0c0a07" d="m877 1073 3 1-8 8-1-2c1.2-3.38 2.901-5.216 6-7"/><path fill="#0d0b07" d="m1174 691 2 1a376 376 0 0 1-2.875 3l-1.617 1.688C1170 698 1170 698 1168 698c1.393-3.367 2.979-4.986 6-7"/><path fill="#0b0a06" d="m758 1154 2 1-6 6-2-1z"/></svg>